<?xml version="1.0" standalone="no"?>
<svg xmlns="http://www.w3.org/2000/svg" width="1000" height="1300" viewBox="0 0 1000 1300"><defs><clipPath id="clip-path-dot-color"><circle cx="257.5" cy="380.5" r="5.5" transform="rotate(0,257.5,380.5)"/><circle cx="257.5" cy="402.5" r="5.5" transform="rotate(0,257.5,402.5)"/><path d="M 252 419v 11h 11a 11 11, 0, 0, 0, -11 -11" transform="rotate(-90,257.5,424.5)"/><rect x="252" y="430" width="11" height="11" transform="rotate(0,257.5,435.5)"/><rect x="252" y="441" width="11" height="11" transform="rotate(0,257.5,446.5)"/><rect x="252" y="452" width="11" height="11" transform="rotate(0,257.5,457.5)"/><rect x="252" y="463" width="11" height="11" transform="rotate(0,257.5,468.5)"/><path d="M 252 474v 11h 5.5a 5.5 5.5, 0, 0, 0, 0 -11" transform="rotate(90,257.5,479.5)"/><circle cx="257.5" cy="501.5" r="5.5" transform="rotate(0,257.5,501.5)"/><circle cx="257.5" cy="545.5" r="5.5" transform="rotate(0,257.5,545.5)"/><path d="M 252 562v 11h 11a 11 11, 0, 0, 0, -11 -11" transform="rotate(-90,257.5,567.5)"/><rect x="252" y="573" width="11" height="11" transform="rotate(0,257.5,578.5)"/><rect x="252" y="584" width="11" height="11" transform="rotate(0,257.5,589.5)"/><rect x="252" y="595" width="11" height="11" transform="rotate(0,257.5,600.5)"/><rect x="252" y="606" width="11" height="11" transform="rotate(0,257.5,611.5)"/><rect x="252" y="617" width="11" height="11" transform="rotate(0,257.5,622.5)"/><path d="M 252 628v 11h 5.5a 5.5 5.5, 0, 0, 0, 0 -11" transform="rotate(90,257.5,633.5)"/><circle cx="257.5" cy="688.5" r="5.5" transform="rotate(0,257.5,688.5)"/><circle cx="268.5" cy="391.5" r="5.5" transform="rotate(0,268.5,391.5)"/><path d="M 263 419v 11h 11a 11 11, 0, 0, 0, -11 -11" transform="rotate(0,268.5,424.5)"/><path d="M 263 430v 11h 11a 11 11, 0, 0, 0, -11 -11" transform="rotate(90,268.5,435.5)"/><path d="M 263 452v 11h 5.5a 5.5 5.5, 0, 0, 0, 0 -11" transform="rotate(0,268.5,457.5)"/><path d="M 263 485v 11h 5.5a 5.5 5.5, 0, 0, 0, 0 -11" transform="rotate(180,268.5,490.5)"/><path d="M 263 507v 11h 11a 11 11, 0, 0, 0, -11 -11" transform="rotate(-90,268.5,512.5)"/><path d="M 263 518v 11h 11a 11 11, 0, 0, 0, -11 -11" transform="rotate(180,268.5,523.5)"/><path d="M 263 551v 11h 11a 11 11, 0, 0, 0, -11 -11" transform="rotate(-90,268.5,556.5)"/><path d="M 263 562v 11h 11a 11 11, 0, 0, 0, -11 -11" transform="rotate(90,268.5,567.5)"/><path d="M 263 584v 11h 5.5a 5.5 5.5, 0, 0, 0, 0 -11" transform="rotate(0,268.5,589.5)"/><rect x="263" y="617" width="11" height="11" transform="rotate(0,268.5,622.5)"/><path d="M 263 672v 11h 5.5a 5.5 5.5, 0, 0, 0, 0 -11" transform="rotate(180,268.5,677.5)"/><circle cx="279.5" cy="380.5" r="5.5" transform="rotate(0,279.5,380.5)"/><path d="M 274 441v 11h 5.5a 5.5 5.5, 0, 0, 0, 0 -11" transform="rotate(180,279.5,446.5)"/><path d="M 274 485v 11h 11a 11 11, 0, 0, 0, -11 -11" transform="rotate(0,279.5,490.5)"/><rect x="274" y="496" width="11" height="11" transform="rotate(0,279.5,501.5)"/><rect x="274" y="507" width="11" height="11" transform="rotate(0,279.5,512.5)"/><rect x="274" y="518" width="11" height="11" transform="rotate(0,279.5,523.5)"/><path d="M 274 540v 11h 11a 11 11, 0, 0, 0, -11 -11" transform="rotate(-90,279.5,545.5)"/><path d="M 274 551v 11h 11a 11 11, 0, 0, 0, -11 -11" transform="rotate(90,279.5,556.5)"/><path d="M 274 573v 11h 5.5a 5.5 5.5, 0, 0, 0, 0 -11" transform="rotate(180,279.5,578.5)"/><circle cx="279.5" cy="600.5" r="5.5" transform="rotate(0,279.5,600.5)"/><rect x="274" y="617" width="11" height="11" transform="rotate(0,279.5,622.5)"/><circle cx="279.5" cy="655.5" r="5.5" transform="rotate(0,279.5,655.5)"/><rect x="274" y="672" width="11" height="11" transform="rotate(0,279.5,677.5)"/><path d="M 285 430v 11h 5.5a 5.5 5.5, 0, 0, 0, 0 -11" transform="rotate(-90,290.5,435.5)"/><path d="M 285 441v 11h 11a 11 11, 0, 0, 0, -11 -11" transform="rotate(90,290.5,446.5)"/><path d="M 285 474v 11h 5.5a 5.5 5.5, 0, 0, 0, 0 -11" transform="rotate(180,290.5,479.5)"/><rect x="285" y="496" width="11" height="11" transform="rotate(0,290.5,501.5)"/><rect x="285" y="507" width="11" height="11" transform="rotate(0,290.5,512.5)"/><rect x="285" y="518" width="11" height="11" transform="rotate(0,290.5,523.5)"/><rect x="285" y="540" width="11" height="11" transform="rotate(0,290.5,545.5)"/><path d="M 285 573v 11h 11a 11 11, 0, 0, 0, -11 -11" transform="rotate(0,290.5,578.5)"/><path d="M 285 584v 11h 5.5a 5.5 5.5, 0, 0, 0, 0 -11" transform="rotate(90,290.5,589.5)"/><rect x="285" y="617" width="11" height="11" transform="rotate(0,290.5,622.5)"/><circle cx="290.5" cy="644.5" r="5.5" transform="rotate(0,290.5,644.5)"/><rect x="285" y="672" width="11" height="11" transform="rotate(0,290.5,677.5)"/><path d="M 285 683v 11h 11a 11 11, 0, 0, 0, -11 -11" transform="rotate(180,290.5,688.5)"/><path d="M 296 375v 11h 5.5a 5.5 5.5, 0, 0, 0, 0 -11" transform="rotate(-90,301.5,380.5)"/><path d="M 296 386v 11h 11a 11 11, 0, 0, 0, -11 -11" transform="rotate(180,301.5,391.5)"/><path d="M 296 408v 11h 5.5a 5.5 5.5, 0, 0, 0, 0 -11" transform="rotate(180,301.5,413.5)"/><rect x="296" y="474" width="11" height="11" transform="rotate(0,301.5,479.5)"/><path d="M 296 496v 11h 11a 11 11, 0, 0, 0, -11 -11" transform="rotate(0,301.5,501.5)"/><rect x="296" y="507" width="11" height="11" transform="rotate(0,301.5,512.5)"/><rect x="296" y="518" width="11" height="11" transform="rotate(0,301.5,523.5)"/><rect x="296" y="529" width="11" height="11" transform="rotate(0,301.5,534.5)"/><rect x="296" y="540" width="11" height="11" transform="rotate(0,301.5,545.5)"/><rect x="296" y="551" width="11" height="11" transform="rotate(0,301.5,556.5)"/><path d="M 296 562v 11h 5.5a 5.5 5.5, 0, 0, 0, 0 -11" transform="rotate(90,301.5,567.5)"/><circle cx="301.5" cy="600.5" r="5.5" transform="rotate(0,301.5,600.5)"/><rect x="296" y="617" width="11" height="11" transform="rotate(0,301.5,622.5)"/><path d="M 296 628v 11h 11a 11 11, 0, 0, 0, -11 -11" transform="rotate(180,301.5,633.5)"/><path d="M 296 650v 11h 5.5a 5.5 5.5, 0, 0, 0, 0 -11" transform="rotate(-90,301.5,655.5)"/><rect x="296" y="661" width="11" height="11" transform="rotate(0,301.5,666.5)"/><rect x="296" y="672" width="11" height="11" transform="rotate(0,301.5,677.5)"/><path d="M 296 683v 11h 11a 11 11, 0, 0, 0, -11 -11" transform="rotate(90,301.5,688.5)"/><path d="M 307 386v 11h 5.5a 5.5 5.5, 0, 0, 0, 0 -11" transform="rotate(0,312.5,391.5)"/><path d="M 307 408v 11h 11a 11 11, 0, 0, 0, -11 -11" transform="rotate(0,312.5,413.5)"/><rect x="307" y="419" width="11" height="11" transform="rotate(0,312.5,424.5)"/><path d="M 307 430v 11h 5.5a 5.5 5.5, 0, 0, 0, 0 -11" transform="rotate(90,312.5,435.5)"/><circle cx="312.5" cy="457.5" r="5.5" transform="rotate(0,312.5,457.5)"/><path d="M 307 474v 11h 11a 11 11, 0, 0, 0, -11 -11" transform="rotate(0,312.5,479.5)"/><path d="M 307 485v 11h 11a 11 11, 0, 0, 0, -11 -11" transform="rotate(180,312.5,490.5)"/><rect x="307" y="507" width="11" height="11" transform="rotate(0,312.5,512.5)"/><rect x="307" y="551" width="11" height="11" transform="rotate(0,312.5,556.5)"/><path d="M 307 573v 11h 11a 11 11, 0, 0, 0, -11 -11" transform="rotate(-90,312.5,578.5)"/><path d="M 307 584v 11h 5.5a 5.5 5.5, 0, 0, 0, 0 -11" transform="rotate(90,312.5,589.5)"/><rect x="307" y="617" width="11" height="11" transform="rotate(0,312.5,622.5)"/><rect x="307" y="628" width="11" height="11" transform="rotate(0,312.5,633.5)"/><path d="M 307 639v 11h 11a 11 11, 0, 0, 0, -11 -11" transform="rotate(180,312.5,644.5)"/><path d="M 318 375v 11h 5.5a 5.5 5.5, 0, 0, 0, 0 -11" transform="rotate(180,323.5,380.5)"/><path d="M 318 397v 11h 5.5a 5.5 5.5, 0, 0, 0, 0 -11" transform="rotate(180,323.5,402.5)"/><rect x="318" y="419" width="11" height="11" transform="rotate(0,323.5,424.5)"/><circle cx="323.5" cy="446.5" r="5.5" transform="rotate(0,323.5,446.5)"/><path d="M 318 463v 11h 5.5a 5.5 5.5, 0, 0, 0, 0 -11" transform="rotate(180,323.5,468.5)"/><path d="M 318 485v 11h 5.5a 5.5 5.5, 0, 0, 0, 0 -11" transform="rotate(0,323.5,490.5)"/><rect x="318" y="507" width="11" height="11" transform="rotate(0,323.5,512.5)"/><circle cx="323.5" cy="534.5" r="5.5" transform="rotate(0,323.5,534.5)"/><rect x="318" y="551" width="11" height="11" transform="rotate(0,323.5,556.5)"/><path d="M 318 573v 11h 5.5a 5.5 5.5, 0, 0, 0, 0 -11" transform="rotate(0,323.5,578.5)"/><path d="M 318 595v 11h 5.5a 5.5 5.5, 0, 0, 0, 0 -11" transform="rotate(180,323.5,600.5)"/><path d="M 318 617v 11h 5.5a 5.5 5.5, 0, 0, 0, 0 -11" transform="rotate(0,323.5,622.5)"/><rect x="318" y="639" width="11" height="11" transform="rotate(0,323.5,644.5)"/><circle cx="323.5" cy="666.5" r="5.5" transform="rotate(0,323.5,666.5)"/><path d="M 318 683v 11h 5.5a 5.5 5.5, 0, 0, 0, 0 -11" transform="rotate(180,323.5,688.5)"/><path d="M 329 375v 11h 11a 11 11, 0, 0, 0, -11 -11" transform="rotate(0,334.5,380.5)"/><rect x="329" y="386" width="11" height="11" transform="rotate(0,334.5,391.5)"/><rect x="329" y="397" width="11" height="11" transform="rotate(0,334.5,402.5)"/><path d="M 329 419v 11h 11a 11 11, 0, 0, 0, -11 -11" transform="rotate(0,334.5,424.5)"/><path d="M 329 430v 11h 5.5a 5.5 5.5, 0, 0, 0, 0 -11" transform="rotate(90,334.5,435.5)"/><path d="M 329 452v 11h 11a 11 11, 0, 0, 0, -11 -11" transform="rotate(-90,334.5,457.5)"/><path d="M 329 463v 11h 11a 11 11, 0, 0, 0, -11 -11" transform="rotate(90,334.5,468.5)"/><rect x="329" y="507" width="11" height="11" transform="rotate(0,334.5,512.5)"/><rect x="329" y="551" width="11" height="11" transform="rotate(0,334.5,556.5)"/><path d="M 329 584v 11h 5.5a 5.5 5.5, 0, 0, 0, 0 -11" transform="rotate(-90,334.5,589.5)"/><rect x="329" y="595" width="11" height="11" transform="rotate(0,334.5,600.5)"/><path d="M 329 606v 11h 11a 11 11, 0, 0, 0, -11 -11" transform="rotate(180,334.5,611.5)"/><path d="M 329 628v 11h 5.5a 5.5 5.5, 0, 0, 0, 0 -11" transform="rotate(-90,334.5,633.5)"/><path d="M 329 639v 11h 11a 11 11, 0, 0, 0, -11 -11" transform="rotate(90,334.5,644.5)"/><path d="M 329 683v 11h 5.5a 5.5 5.5, 0, 0, 0, 0 -11" transform="rotate(0,334.5,688.5)"/><path d="M 340 342v 11h 11a 11 11, 0, 0, 0, -11 -11" transform="rotate(-90,345.5,347.5)"/><path d="M 340 353v 11h 5.5a 5.5 5.5, 0, 0, 0, 0 -11" transform="rotate(90,345.5,358.5)"/><path d="M 340 386v 11h 11a 11 11, 0, 0, 0, -11 -11" transform="rotate(0,345.5,391.5)"/><rect x="340" y="397" width="11" height="11" transform="rotate(0,345.5,402.5)"/><path d="M 340 408v 11h 5.5a 5.5 5.5, 0, 0, 0, 0 -11" transform="rotate(90,345.5,413.5)"/><path d="M 340 452v 11h 5.5a 5.5 5.5, 0, 0, 0, 0 -11" transform="rotate(0,345.5,457.5)"/><path d="M 340 474v 11h 5.5a 5.5 5.5, 0, 0, 0, 0 -11" transform="rotate(180,345.5,479.5)"/><path d="M 340 496v 11h 5.5a 5.5 5.5, 0, 0, 0, 0 -11" transform="rotate(-90,345.5,501.5)"/><rect x="340" y="507" width="11" height="11" transform="rotate(0,345.5,512.5)"/><rect x="340" y="518" width="11" height="11" transform="rotate(0,345.5,523.5)"/><rect x="340" y="529" width="11" height="11" transform="rotate(0,345.5,534.5)"/><rect x="340" y="540" width="11" height="11" transform="rotate(0,345.5,545.5)"/><rect x="340" y="551" width="11" height="11" transform="rotate(0,345.5,556.5)"/><path d="M 340 562v 11h 11a 11 11, 0, 0, 0, -11 -11" transform="rotate(180,345.5,567.5)"/><rect x="340" y="595" width="11" height="11" transform="rotate(0,345.5,600.5)"/><rect x="340" y="606" width="11" height="11" transform="rotate(0,345.5,611.5)"/><path d="M 340 650v 11h 5.5a 5.5 5.5, 0, 0, 0, 0 -11" transform="rotate(-90,345.5,655.5)"/><path d="M 340 661v 11h 11a 11 11, 0, 0, 0, -11 -11" transform="rotate(180,345.5,666.5)"/><path d="M 340 705v 11h 5.5a 5.5 5.5, 0, 0, 0, 0 -11" transform="rotate(180,345.5,710.5)"/><path d="M 340 727v 11h 5.5a 5.5 5.5, 0, 0, 0, 0 -11" transform="rotate(180,345.5,732.5)"/><path d="M 340 749v 11h 5.5a 5.5 5.5, 0, 0, 0, 0 -11" transform="rotate(180,345.5,754.5)"/><path d="M 340 771v 11h 5.5a 5.5 5.5, 0, 0, 0, 0 -11" transform="rotate(180,345.5,776.5)"/><path d="M 351 298v 11h 5.5a 5.5 5.5, 0, 0, 0, 0 -11" transform="rotate(-90,356.5,303.5)"/><rect x="351" y="309" width="11" height="11" transform="rotate(0,356.5,314.5)"/><path d="M 351 320v 11h 11a 11 11, 0, 0, 0, -11 -11" transform="rotate(180,356.5,325.5)"/><rect x="351" y="342" width="11" height="11" transform="rotate(0,356.5,347.5)"/><rect x="351" y="474" width="11" height="11" transform="rotate(0,356.5,479.5)"/><path d="M 351 485v 11h 5.5a 5.5 5.5, 0, 0, 0, 0 -11" transform="rotate(90,356.5,490.5)"/><rect x="351" y="507" width="11" height="11" transform="rotate(0,356.5,512.5)"/><path d="M 351 529v 11h 11a 11 11, 0, 0, 0, -11 -11" transform="rotate(0,356.5,534.5)"/><path d="M 351 540v 11h 11a 11 11, 0, 0, 0, -11 -11" transform="rotate(90,356.5,545.5)"/><path d="M 351 562v 11h 11a 11 11, 0, 0, 0, -11 -11" transform="rotate(0,356.5,567.5)"/><path d="M 351 573v 11h 11a 11 11, 0, 0, 0, -11 -11" transform="rotate(180,356.5,578.5)"/><path d="M 351 595v 11h 11a 11 11, 0, 0, 0, -11 -11" transform="rotate(0,356.5,600.5)"/><rect x="351" y="606" width="11" height="11" transform="rotate(0,356.5,611.5)"/><path d="M 351 617v 11h 11a 11 11, 0, 0, 0, -11 -11" transform="rotate(180,356.5,622.5)"/><circle cx="356.5" cy="644.5" r="5.5" transform="rotate(0,356.5,644.5)"/><path d="M 351 661v 11h 11a 11 11, 0, 0, 0, -11 -11" transform="rotate(0,356.5,666.5)"/><path d="M 351 672v 11h 11a 11 11, 0, 0, 0, -11 -11" transform="rotate(180,356.5,677.5)"/><path d="M 351 694v 11h 11a 11 11, 0, 0, 0, -11 -11" transform="rotate(-90,356.5,699.5)"/><rect x="351" y="705" width="11" height="11" transform="rotate(0,356.5,710.5)"/><rect x="351" y="716" width="11" height="11" transform="rotate(0,356.5,721.5)"/><path d="M 351 727v 11h 11a 11 11, 0, 0, 0, -11 -11" transform="rotate(90,356.5,732.5)"/><rect x="351" y="749" width="11" height="11" transform="rotate(0,356.5,754.5)"/><rect x="351" y="760" width="11" height="11" transform="rotate(0,356.5,765.5)"/><rect x="351" y="771" width="11" height="11" transform="rotate(0,356.5,776.5)"/><rect x="362" y="320" width="11" height="11" transform="rotate(0,367.5,325.5)"/><rect x="362" y="342" width="11" height="11" transform="rotate(0,367.5,347.5)"/><rect x="362" y="353" width="11" height="11" transform="rotate(0,367.5,358.5)"/><rect x="362" y="364" width="11" height="11" transform="rotate(0,367.5,369.5)"/><path d="M 362 375v 11h 5.5a 5.5 5.5, 0, 0, 0, 0 -11" transform="rotate(90,367.5,380.5)"/><circle cx="367.5" cy="402.5" r="5.5" transform="rotate(0,367.5,402.5)"/><path d="M 362 441v 11h 11a 11 11, 0, 0, 0, -11 -11" transform="rotate(-90,367.5,446.5)"/><rect x="362" y="452" width="11" height="11" transform="rotate(0,367.5,457.5)"/><rect x="362" y="463" width="11" height="11" transform="rotate(0,367.5,468.5)"/><rect x="362" y="474" width="11" height="11" transform="rotate(0,367.5,479.5)"/><path d="M 362 496v 11h 11a 11 11, 0, 0, 0, -11 -11" transform="rotate(-90,367.5,501.5)"/><path d="M 362 507v 11h 11a 11 11, 0, 0, 0, -11 -11" transform="rotate(90,367.5,512.5)"/><rect x="362" y="573" width="11" height="11" transform="rotate(0,367.5,578.5)"/><path d="M 362 584v 11h 5.5a 5.5 5.5, 0, 0, 0, 0 -11" transform="rotate(90,367.5,589.5)"/><path d="M 362 617v 11h 11a 11 11, 0, 0, 0, -11 -11" transform="rotate(0,367.5,622.5)"/><path d="M 362 628v 11h 5.5a 5.5 5.5, 0, 0, 0, 0 -11" transform="rotate(90,367.5,633.5)"/><circle cx="367.5" cy="655.5" r="5.5" transform="rotate(0,367.5,655.5)"/><rect x="362" y="672" width="11" height="11" transform="rotate(0,367.5,677.5)"/><path d="M 362 694v 11h 5.5a 5.5 5.5, 0, 0, 0, 0 -11" transform="rotate(0,367.5,699.5)"/><path d="M 362 716v 11h 5.5a 5.5 5.5, 0, 0, 0, 0 -11" transform="rotate(0,367.5,721.5)"/><path d="M 362 749v 11h 5.5a 5.5 5.5, 0, 0, 0, 0 -11" transform="rotate(0,367.5,754.5)"/><path d="M 362 771v 11h 5.5a 5.5 5.5, 0, 0, 0, 0 -11" transform="rotate(0,367.5,776.5)"/><path d="M 373 309v 11h 11a 11 11, 0, 0, 0, -11 -11" transform="rotate(-90,378.5,314.5)"/><rect x="373" y="320" width="11" height="11" transform="rotate(0,378.5,325.5)"/><rect x="373" y="331" width="11" height="11" transform="rotate(0,378.5,336.5)"/><rect x="373" y="342" width="11" height="11" transform="rotate(0,378.5,347.5)"/><path d="M 373 364v 11h 5.5a 5.5 5.5, 0, 0, 0, 0 -11" transform="rotate(0,378.5,369.5)"/><path d="M 373 386v 11h 5.5a 5.5 5.5, 0, 0, 0, 0 -11" transform="rotate(180,378.5,391.5)"/><path d="M 373 419v 11h 11a 11 11, 0, 0, 0, -11 -11" transform="rotate(-90,378.5,424.5)"/><rect x="373" y="430" width="11" height="11" transform="rotate(0,378.5,435.5)"/><rect x="373" y="441" width="11" height="11" transform="rotate(0,378.5,446.5)"/><path d="M 373 474v 11h 11a 11 11, 0, 0, 0, -11 -11" transform="rotate(0,378.5,479.5)"/><rect x="373" y="485" width="11" height="11" transform="rotate(0,378.5,490.5)"/><path d="M 373 496v 11h 11a 11 11, 0, 0, 0, -11 -11" transform="rotate(90,378.5,501.5)"/><path d="M 373 518v 11h 5.5a 5.5 5.5, 0, 0, 0, 0 -11" transform="rotate(180,378.5,523.5)"/><path d="M 373 551v 11h 5.5a 5.5 5.5, 0, 0, 0, 0 -11" transform="rotate(180,378.5,556.5)"/><path d="M 373 573v 11h 5.5a 5.5 5.5, 0, 0, 0, 0 -11" transform="rotate(0,378.5,578.5)"/><path d="M 373 595v 11h 5.5a 5.5 5.5, 0, 0, 0, 0 -11" transform="rotate(180,378.5,600.5)"/><path d="M 373 639v 11h 5.5a 5.5 5.5, 0, 0, 0, 0 -11" transform="rotate(180,378.5,644.5)"/><rect x="373" y="672" width="11" height="11" transform="rotate(0,378.5,677.5)"/><path d="M 373 760v 11h 5.5a 5.5 5.5, 0, 0, 0, 0 -11" transform="rotate(180,378.5,765.5)"/><path d="M 384 287v 11h 11a 11 11, 0, 0, 0, -11 -11" transform="rotate(-90,389.5,292.5)"/><rect x="384" y="298" width="11" height="11" transform="rotate(0,389.5,303.5)"/><rect x="384" y="309" width="11" height="11" transform="rotate(0,389.5,314.5)"/><rect x="384" y="331" width="11" height="11" transform="rotate(0,389.5,336.5)"/><rect x="384" y="342" width="11" height="11" transform="rotate(0,389.5,347.5)"/><path d="M 384 353v 11h 5.5a 5.5 5.5, 0, 0, 0, 0 -11" transform="rotate(90,389.5,358.5)"/><path d="M 384 386v 11h 11a 11 11, 0, 0, 0, -11 -11" transform="rotate(0,389.5,391.5)"/><path d="M 384 397v 11h 11a 11 11, 0, 0, 0, -11 -11" transform="rotate(180,389.5,402.5)"/><path d="M 384 419v 11h 11a 11 11, 0, 0, 0, -11 -11" transform="rotate(0,389.5,424.5)"/><rect x="384" y="430" width="11" height="11" transform="rotate(0,389.5,435.5)"/><path d="M 384 441v 11h 11a 11 11, 0, 0, 0, -11 -11" transform="rotate(90,389.5,446.5)"/><path d="M 384 463v 11h 5.5a 5.5 5.5, 0, 0, 0, 0 -11" transform="rotate(180,389.5,468.5)"/><rect x="384" y="518" width="11" height="11" transform="rotate(0,389.5,523.5)"/><rect x="384" y="529" width="11" height="11" transform="rotate(0,389.5,534.5)"/><rect x="384" y="540" width="11" height="11" transform="rotate(0,389.5,545.5)"/><rect x="384" y="551" width="11" height="11" transform="rotate(0,389.5,556.5)"/><path d="M 384 562v 11h 5.5a 5.5 5.5, 0, 0, 0, 0 -11" transform="rotate(90,389.5,567.5)"/><path d="M 384 584v 11h 11a 11 11, 0, 0, 0, -11 -11" transform="rotate(-90,389.5,589.5)"/><rect x="384" y="595" width="11" height="11" transform="rotate(0,389.5,600.5)"/><rect x="384" y="606" width="11" height="11" transform="rotate(0,389.5,611.5)"/><rect x="384" y="617" width="11" height="11" transform="rotate(0,389.5,622.5)"/><rect x="384" y="628" width="11" height="11" transform="rotate(0,389.5,633.5)"/><path d="M 384 639v 11h 11a 11 11, 0, 0, 0, -11 -11" transform="rotate(90,389.5,644.5)"/><path d="M 384 661v 11h 11a 11 11, 0, 0, 0, -11 -11" transform="rotate(-90,389.5,666.5)"/><rect x="384" y="672" width="11" height="11" transform="rotate(0,389.5,677.5)"/><rect x="384" y="683" width="11" height="11" transform="rotate(0,389.5,688.5)"/><rect x="384" y="694" width="11" height="11" transform="rotate(0,389.5,699.5)"/><rect x="384" y="705" width="11" height="11" transform="rotate(0,389.5,710.5)"/><rect x="384" y="716" width="11" height="11" transform="rotate(0,389.5,721.5)"/><rect x="384" y="727" width="11" height="11" transform="rotate(0,389.5,732.5)"/><rect x="384" y="738" width="11" height="11" transform="rotate(0,389.5,743.5)"/><rect x="384" y="749" width="11" height="11" transform="rotate(0,389.5,754.5)"/><rect x="384" y="760" width="11" height="11" transform="rotate(0,389.5,765.5)"/><path d="M 384 771v 11h 5.5a 5.5 5.5, 0, 0, 0, 0 -11" transform="rotate(90,389.5,776.5)"/><path d="M 395 287v 11h 11a 11 11, 0, 0, 0, -11 -11" transform="rotate(0,400.5,292.5)"/><rect x="395" y="298" width="11" height="11" transform="rotate(0,400.5,303.5)"/><path d="M 395 309v 11h 11a 11 11, 0, 0, 0, -11 -11" transform="rotate(90,400.5,314.5)"/><path d="M 395 331v 11h 11a 11 11, 0, 0, 0, -11 -11" transform="rotate(0,400.5,336.5)"/><path d="M 395 342v 11h 11a 11 11, 0, 0, 0, -11 -11" transform="rotate(90,400.5,347.5)"/><path d="M 395 364v 11h 5.5a 5.5 5.5, 0, 0, 0, 0 -11" transform="rotate(-90,400.5,369.5)"/><path d="M 395 375v 11h 11a 11 11, 0, 0, 0, -11 -11" transform="rotate(180,400.5,380.5)"/><rect x="395" y="397" width="11" height="11" transform="rotate(0,400.5,402.5)"/><rect x="395" y="430" width="11" height="11" transform="rotate(0,400.5,435.5)"/><path d="M 395 452v 11h 5.5a 5.5 5.5, 0, 0, 0, 0 -11" transform="rotate(-90,400.5,457.5)"/><path d="M 395 463v 11h 11a 11 11, 0, 0, 0, -11 -11" transform="rotate(90,400.5,468.5)"/><path d="M 395 496v 11h 5.5a 5.5 5.5, 0, 0, 0, 0 -11" transform="rotate(180,400.5,501.5)"/><rect x="395" y="518" width="11" height="11" transform="rotate(0,400.5,523.5)"/><rect x="395" y="529" width="11" height="11" transform="rotate(0,400.5,534.5)"/><rect x="395" y="584" width="11" height="11" transform="rotate(0,400.5,589.5)"/><path d="M 395 661v 11h 5.5a 5.5 5.5, 0, 0, 0, 0 -11" transform="rotate(0,400.5,666.5)"/><rect x="395" y="683" width="11" height="11" transform="rotate(0,400.5,688.5)"/><path d="M 395 694v 11h 11a 11 11, 0, 0, 0, -11 -11" transform="rotate(90,400.5,699.5)"/><path d="M 395 727v 11h 5.5a 5.5 5.5, 0, 0, 0, 0 -11" transform="rotate(0,400.5,732.5)"/><rect x="395" y="749" width="11" height="11" transform="rotate(0,400.5,754.5)"/><circle cx="411.5" cy="358.5" r="5.5" transform="rotate(0,411.5,358.5)"/><rect x="406" y="375" width="11" height="11" transform="rotate(0,411.5,380.5)"/><path d="M 406 397v 11h 5.5a 5.5 5.5, 0, 0, 0, 0 -11" transform="rotate(0,411.5,402.5)"/><path d="M 406 419v 11h 11a 11 11, 0, 0, 0, -11 -11" transform="rotate(-90,411.5,424.5)"/><rect x="406" y="430" width="11" height="11" transform="rotate(0,411.5,435.5)"/><path d="M 406 496v 11h 5.5a 5.5 5.5, 0, 0, 0, 0 -11" transform="rotate(0,411.5,501.5)"/><path d="M 406 518v 11h 11a 11 11, 0, 0, 0, -11 -11" transform="rotate(0,411.5,523.5)"/><path d="M 406 529v 11h 11a 11 11, 0, 0, 0, -11 -11" transform="rotate(90,411.5,534.5)"/><path d="M 406 551v 11h 5.5a 5.5 5.5, 0, 0, 0, 0 -11" transform="rotate(-90,411.5,556.5)"/><path d="M 406 562v 11h 5.5a 5.5 5.5, 0, 0, 0, 0 -11" transform="rotate(90,411.5,567.5)"/><path d="M 406 584v 11h 11a 11 11, 0, 0, 0, -11 -11" transform="rotate(0,411.5,589.5)"/><path d="M 406 595v 11h 5.5a 5.5 5.5, 0, 0, 0, 0 -11" transform="rotate(90,411.5,600.5)"/><circle cx="411.5" cy="622.5" r="5.5" transform="rotate(0,411.5,622.5)"/><path d="M 406 650v 11h 5.5a 5.5 5.5, 0, 0, 0, 0 -11" transform="rotate(180,411.5,655.5)"/><rect x="406" y="683" width="11" height="11" transform="rotate(0,411.5,688.5)"/><rect x="406" y="749" width="11" height="11" transform="rotate(0,411.5,754.5)"/><path d="M 406 771v 11h 5.5a 5.5 5.5, 0, 0, 0, 0 -11" transform="rotate(180,411.5,776.5)"/><circle cx="422.5" cy="303.5" r="5.5" transform="rotate(0,422.5,303.5)"/><path d="M 417 320v 11h 5.5a 5.5 5.5, 0, 0, 0, 0 -11" transform="rotate(180,422.5,325.5)"/><circle cx="422.5" cy="347.5" r="5.5" transform="rotate(0,422.5,347.5)"/><path d="M 417 375v 11h 5.5a 5.5 5.5, 0, 0, 0, 0 -11" transform="rotate(0,422.5,380.5)"/><path d="M 417 408v 11h 5.5a 5.5 5.5, 0, 0, 0, 0 -11" transform="rotate(-90,422.5,413.5)"/><rect x="417" y="419" width="11" height="11" transform="rotate(0,422.5,424.5)"/><rect x="417" y="430" width="11" height="11" transform="rotate(0,422.5,435.5)"/><path d="M 417 628v 11h 11a 11 11, 0, 0, 0, -11 -11" transform="rotate(-90,422.5,633.5)"/><rect x="417" y="639" width="11" height="11" transform="rotate(0,422.5,644.5)"/><rect x="417" y="650" width="11" height="11" transform="rotate(0,422.5,655.5)"/><rect x="417" y="661" width="11" height="11" transform="rotate(0,422.5,666.5)"/><rect x="417" y="672" width="11" height="11" transform="rotate(0,422.5,677.5)"/><path d="M 417 683v 11h 11a 11 11, 0, 0, 0, -11 -11" transform="rotate(90,422.5,688.5)"/><circle cx="422.5" cy="710.5" r="5.5" transform="rotate(0,422.5,710.5)"/><circle cx="422.5" cy="732.5" r="5.5" transform="rotate(0,422.5,732.5)"/><rect x="417" y="749" width="11" height="11" transform="rotate(0,422.5,754.5)"/><rect x="417" y="760" width="11" height="11" transform="rotate(0,422.5,765.5)"/><path d="M 417 771v 11h 11a 11 11, 0, 0, 0, -11 -11" transform="rotate(90,422.5,776.5)"/><circle cx="433.5" cy="292.5" r="5.5" transform="rotate(0,433.5,292.5)"/><path d="M 428 309v 11h 5.5a 5.5 5.5, 0, 0, 0, 0 -11" transform="rotate(-90,433.5,314.5)"/><rect x="428" y="320" width="11" height="11" transform="rotate(0,433.5,325.5)"/><path d="M 428 331v 11h 11a 11 11, 0, 0, 0, -11 -11" transform="rotate(180,433.5,336.5)"/><path d="M 428 353v 11h 5.5a 5.5 5.5, 0, 0, 0, 0 -11" transform="rotate(-90,433.5,358.5)"/><path d="M 428 364v 11h 5.5a 5.5 5.5, 0, 0, 0, 0 -11" transform="rotate(90,433.5,369.5)"/><circle cx="433.5" cy="391.5" r="5.5" transform="rotate(0,433.5,391.5)"/><path d="M 428 419v 11h 11a 11 11, 0, 0, 0, -11 -11" transform="rotate(0,433.5,424.5)"/><path d="M 428 430v 11h 11a 11 11, 0, 0, 0, -11 -11" transform="rotate(90,433.5,435.5)"/><rect x="428" y="628" width="11" height="11" transform="rotate(0,433.5,633.5)"/><rect x="428" y="639" width="11" height="11" transform="rotate(0,433.5,644.5)"/><path d="M 428 650v 11h 11a 11 11, 0, 0, 0, -11 -11" transform="rotate(90,433.5,655.5)"/><circle cx="433.5" cy="721.5" r="5.5" transform="rotate(0,433.5,721.5)"/><path d="M 428 749v 11h 5.5a 5.5 5.5, 0, 0, 0, 0 -11" transform="rotate(0,433.5,754.5)"/><path d="M 439 331v 11h 5.5a 5.5 5.5, 0, 0, 0, 0 -11" transform="rotate(0,444.5,336.5)"/><path d="M 439 628v 11h 5.5a 5.5 5.5, 0, 0, 0, 0 -11" transform="rotate(0,444.5,633.5)"/><path d="M 439 661v 11h 11a 11 11, 0, 0, 0, -11 -11" transform="rotate(-90,444.5,666.5)"/><path d="M 439 672v 11h 11a 11 11, 0, 0, 0, -11 -11" transform="rotate(180,444.5,677.5)"/><circle cx="444.5" cy="765.5" r="5.5" transform="rotate(0,444.5,765.5)"/><path d="M 450 298v 11h 5.5a 5.5 5.5, 0, 0, 0, 0 -11" transform="rotate(180,455.5,303.5)"/><path d="M 450 342v 11h 5.5a 5.5 5.5, 0, 0, 0, 0 -11" transform="rotate(-90,455.5,347.5)"/><rect x="450" y="353" width="11" height="11" transform="rotate(0,455.5,358.5)"/><path d="M 450 364v 11h 5.5a 5.5 5.5, 0, 0, 0, 0 -11" transform="rotate(90,455.5,369.5)"/><path d="M 450 386v 11h 11a 11 11, 0, 0, 0, -11 -11" transform="rotate(-90,455.5,391.5)"/><path d="M 450 397v 11h 5.5a 5.5 5.5, 0, 0, 0, 0 -11" transform="rotate(90,455.5,402.5)"/><path d="M 450 430v 11h 5.5a 5.5 5.5, 0, 0, 0, 0 -11" transform="rotate(-90,455.5,435.5)"/><path d="M 450 441v 11h 11a 11 11, 0, 0, 0, -11 -11" transform="rotate(180,455.5,446.5)"/><path d="M 450 617v 11h 5.5a 5.5 5.5, 0, 0, 0, 0 -11" transform="rotate(180,455.5,622.5)"/><path d="M 450 639v 11h 11a 11 11, 0, 0, 0, -11 -11" transform="rotate(-90,455.5,644.5)"/><rect x="450" y="650" width="11" height="11" transform="rotate(0,455.5,655.5)"/><rect x="450" y="661" width="11" height="11" transform="rotate(0,455.5,666.5)"/><rect x="450" y="672" width="11" height="11" transform="rotate(0,455.5,677.5)"/><rect x="450" y="683" width="11" height="11" transform="rotate(0,455.5,688.5)"/><rect x="450" y="694" width="11" height="11" transform="rotate(0,455.5,699.5)"/><path d="M 450 705v 11h 11a 11 11, 0, 0, 0, -11 -11" transform="rotate(180,455.5,710.5)"/><path d="M 450 727v 11h 5.5a 5.5 5.5, 0, 0, 0, 0 -11" transform="rotate(-90,455.5,732.5)"/><path d="M 450 738v 11h 11a 11 11, 0, 0, 0, -11 -11" transform="rotate(180,455.5,743.5)"/><circle cx="455.5" cy="776.5" r="5.5" transform="rotate(0,455.5,776.5)"/><path d="M 461 298v 11h 5.5a 5.5 5.5, 0, 0, 0, 0 -11" transform="rotate(0,466.5,303.5)"/><path d="M 461 320v 11h 11a 11 11, 0, 0, 0, -11 -11" transform="rotate(-90,466.5,325.5)"/><path d="M 461 331v 11h 11a 11 11, 0, 0, 0, -11 -11" transform="rotate(180,466.5,336.5)"/><path d="M 461 375v 11h 11a 11 11, 0, 0, 0, -11 -11" transform="rotate(-90,466.5,380.5)"/><path d="M 461 386v 11h 11a 11 11, 0, 0, 0, -11 -11" transform="rotate(90,466.5,391.5)"/><path d="M 461 408v 11h 5.5a 5.5 5.5, 0, 0, 0, 0 -11" transform="rotate(180,466.5,413.5)"/><path d="M 461 441v 11h 5.5a 5.5 5.5, 0, 0, 0, 0 -11" transform="rotate(0,466.5,446.5)"/><rect x="461" y="617" width="11" height="11" transform="rotate(0,466.5,622.5)"/><rect x="461" y="628" width="11" height="11" transform="rotate(0,466.5,633.5)"/><path d="M 461 639v 11h 11a 11 11, 0, 0, 0, -11 -11" transform="rotate(90,466.5,644.5)"/><rect x="461" y="661" width="11" height="11" transform="rotate(0,466.5,666.5)"/><rect x="461" y="683" width="11" height="11" transform="rotate(0,466.5,688.5)"/><rect x="461" y="705" width="11" height="11" transform="rotate(0,466.5,710.5)"/><rect x="461" y="738" width="11" height="11" transform="rotate(0,466.5,743.5)"/><path d="M 461 749v 11h 5.5a 5.5 5.5, 0, 0, 0, 0 -11" transform="rotate(90,466.5,754.5)"/><path d="M 472 309v 11h 11a 11 11, 0, 0, 0, -11 -11" transform="rotate(-90,477.5,314.5)"/><rect x="472" y="320" width="11" height="11" transform="rotate(0,477.5,325.5)"/><rect x="472" y="331" width="11" height="11" transform="rotate(0,477.5,336.5)"/><rect x="472" y="342" width="11" height="11" transform="rotate(0,477.5,347.5)"/><rect x="472" y="353" width="11" height="11" transform="rotate(0,477.5,358.5)"/><rect x="472" y="364" width="11" height="11" transform="rotate(0,477.5,369.5)"/><rect x="472" y="375" width="11" height="11" transform="rotate(0,477.5,380.5)"/><path d="M 472 408v 11h 5.5a 5.5 5.5, 0, 0, 0, 0 -11" transform="rotate(0,477.5,413.5)"/><rect x="472" y="617" width="11" height="11" transform="rotate(0,477.5,622.5)"/><path d="M 472 628v 11h 11a 11 11, 0, 0, 0, -11 -11" transform="rotate(90,477.5,633.5)"/><path d="M 472 650v 11h 11a 11 11, 0, 0, 0, -11 -11" transform="rotate(-90,477.5,655.5)"/><rect x="472" y="661" width="11" height="11" transform="rotate(0,477.5,666.5)"/><rect x="472" y="683" width="11" height="11" transform="rotate(0,477.5,688.5)"/><rect x="472" y="694" width="11" height="11" transform="rotate(0,477.5,699.5)"/><rect x="472" y="705" width="11" height="11" transform="rotate(0,477.5,710.5)"/><rect x="472" y="716" width="11" height="11" transform="rotate(0,477.5,721.5)"/><rect x="472" y="727" width="11" height="11" transform="rotate(0,477.5,732.5)"/><rect x="472" y="738" width="11" height="11" transform="rotate(0,477.5,743.5)"/><path d="M 483 309v 11h 5.5a 5.5 5.5, 0, 0, 0, 0 -11" transform="rotate(0,488.5,314.5)"/><rect x="483" y="331" width="11" height="11" transform="rotate(0,488.5,336.5)"/><rect x="483" y="375" width="11" height="11" transform="rotate(0,488.5,380.5)"/><rect x="483" y="386" width="11" height="11" transform="rotate(0,488.5,391.5)"/><path d="M 483 397v 11h 11a 11 11, 0, 0, 0, -11 -11" transform="rotate(180,488.5,402.5)"/><path d="M 483 419v 11h 5.5a 5.5 5.5, 0, 0, 0, 0 -11" transform="rotate(-90,488.5,424.5)"/><path d="M 483 430v 11h 11a 11 11, 0, 0, 0, -11 -11" transform="rotate(180,488.5,435.5)"/><rect x="483" y="617" width="11" height="11" transform="rotate(0,488.5,622.5)"/><path d="M 483 639v 11h 11a 11 11, 0, 0, 0, -11 -11" transform="rotate(-90,488.5,644.5)"/><rect x="483" y="650" width="11" height="11" transform="rotate(0,488.5,655.5)"/><rect x="483" y="661" width="11" height="11" transform="rotate(0,488.5,666.5)"/><rect x="483" y="683" width="11" height="11" transform="rotate(0,488.5,688.5)"/><rect x="483" y="727" width="11" height="11" transform="rotate(0,488.5,732.5)"/><path d="M 483 738v 11h 11a 11 11, 0, 0, 0, -11 -11" transform="rotate(90,488.5,743.5)"/><circle cx="488.5" cy="776.5" r="5.5" transform="rotate(0,488.5,776.5)"/><path d="M 494 298v 11h 5.5a 5.5 5.5, 0, 0, 0, 0 -11" transform="rotate(180,499.5,303.5)"/><rect x="494" y="331" width="11" height="11" transform="rotate(0,499.5,336.5)"/><circle cx="499.5" cy="358.5" r="5.5" transform="rotate(0,499.5,358.5)"/><rect x="494" y="375" width="11" height="11" transform="rotate(0,499.5,380.5)"/><rect x="494" y="397" width="11" height="11" transform="rotate(0,499.5,402.5)"/><path d="M 494 430v 11h 5.5a 5.5 5.5, 0, 0, 0, 0 -11" transform="rotate(0,499.5,435.5)"/><path d="M 494 617v 11h 11a 11 11, 0, 0, 0, -11 -11" transform="rotate(0,499.5,622.5)"/><rect x="494" y="628" width="11" height="11" transform="rotate(0,499.5,633.5)"/><rect x="494" y="639" width="11" height="11" transform="rotate(0,499.5,644.5)"/><rect x="494" y="650" width="11" height="11" transform="rotate(0,499.5,655.5)"/><path d="M 494 661v 11h 11a 11 11, 0, 0, 0, -11 -11" transform="rotate(90,499.5,666.5)"/><rect x="494" y="683" width="11" height="11" transform="rotate(0,499.5,688.5)"/><circle cx="499.5" cy="710.5" r="5.5" transform="rotate(0,499.5,710.5)"/><rect x="494" y="727" width="11" height="11" transform="rotate(0,499.5,732.5)"/><circle cx="499.5" cy="754.5" r="5.5" transform="rotate(0,499.5,754.5)"/><rect x="505" y="298" width="11" height="11" transform="rotate(0,510.5,303.5)"/><path d="M 505 309v 11h 5.5a 5.5 5.5, 0, 0, 0, 0 -11" transform="rotate(90,510.5,314.5)"/><rect x="505" y="331" width="11" height="11" transform="rotate(0,510.5,336.5)"/><rect x="505" y="375" width="11" height="11" transform="rotate(0,510.5,380.5)"/><rect x="505" y="397" width="11" height="11" transform="rotate(0,510.5,402.5)"/><rect x="505" y="628" width="11" height="11" transform="rotate(0,510.5,633.5)"/><rect x="505" y="683" width="11" height="11" transform="rotate(0,510.5,688.5)"/><rect x="505" y="727" width="11" height="11" transform="rotate(0,510.5,732.5)"/><path d="M 505 738v 11h 11a 11 11, 0, 0, 0, -11 -11" transform="rotate(180,510.5,743.5)"/><circle cx="510.5" cy="765.5" r="5.5" transform="rotate(0,510.5,765.5)"/><path d="M 516 298v 11h 5.5a 5.5 5.5, 0, 0, 0, 0 -11" transform="rotate(0,521.5,303.5)"/><path d="M 516 320v 11h 5.5a 5.5 5.5, 0, 0, 0, 0 -11" transform="rotate(-90,521.5,325.5)"/><rect x="516" y="331" width="11" height="11" transform="rotate(0,521.5,336.5)"/><rect x="516" y="342" width="11" height="11" transform="rotate(0,521.5,347.5)"/><rect x="516" y="353" width="11" height="11" transform="rotate(0,521.5,358.5)"/><rect x="516" y="364" width="11" height="11" transform="rotate(0,521.5,369.5)"/><rect x="516" y="375" width="11" height="11" transform="rotate(0,521.5,380.5)"/><rect x="516" y="386" width="11" height="11" transform="rotate(0,521.5,391.5)"/><rect x="516" y="397" width="11" height="11" transform="rotate(0,521.5,402.5)"/><circle cx="521.5" cy="424.5" r="5.5" transform="rotate(0,521.5,424.5)"/><rect x="516" y="628" width="11" height="11" transform="rotate(0,521.5,633.5)"/><path d="M 516 661v 11h 5.5a 5.5 5.5, 0, 0, 0, 0 -11" transform="rotate(-90,521.5,666.5)"/><rect x="516" y="672" width="11" height="11" transform="rotate(0,521.5,677.5)"/><rect x="516" y="683" width="11" height="11" transform="rotate(0,521.5,688.5)"/><rect x="516" y="694" width="11" height="11" transform="rotate(0,521.5,699.5)"/><rect x="516" y="705" width="11" height="11" transform="rotate(0,521.5,710.5)"/><rect x="516" y="716" width="11" height="11" transform="rotate(0,521.5,721.5)"/><rect x="516" y="727" width="11" height="11" transform="rotate(0,521.5,732.5)"/><rect x="516" y="738" width="11" height="11" transform="rotate(0,521.5,743.5)"/><path d="M 527 287v 11h 5.5a 5.5 5.5, 0, 0, 0, 0 -11" transform="rotate(180,532.5,292.5)"/><path d="M 527 309v 11h 5.5a 5.5 5.5, 0, 0, 0, 0 -11" transform="rotate(180,532.5,314.5)"/><rect x="527" y="342" width="11" height="11" transform="rotate(0,532.5,347.5)"/><path d="M 527 364v 11h 11a 11 11, 0, 0, 0, -11 -11" transform="rotate(0,532.5,369.5)"/><rect x="527" y="375" width="11" height="11" transform="rotate(0,532.5,380.5)"/><rect x="527" y="397" width="11" height="11" transform="rotate(0,532.5,402.5)"/><path d="M 527 408v 11h 11a 11 11, 0, 0, 0, -11 -11" transform="rotate(180,532.5,413.5)"/><path d="M 527 617v 11h 5.5a 5.5 5.5, 0, 0, 0, 0 -11" transform="rotate(-90,532.5,622.5)"/><path d="M 527 628v 11h 11a 11 11, 0, 0, 0, -11 -11" transform="rotate(90,532.5,633.5)"/><rect x="527" y="683" width="11" height="11" transform="rotate(0,532.5,688.5)"/><rect x="527" y="694" width="11" height="11" transform="rotate(0,532.5,699.5)"/><rect x="527" y="705" width="11" height="11" transform="rotate(0,532.5,710.5)"/><rect x="527" y="738" width="11" height="11" transform="rotate(0,532.5,743.5)"/><path d="M 527 749v 11h 11a 11 11, 0, 0, 0, -11 -11" transform="rotate(180,532.5,754.5)"/><rect x="538" y="287" width="11" height="11" transform="rotate(0,543.5,292.5)"/><rect x="538" y="309" width="11" height="11" transform="rotate(0,543.5,314.5)"/><path d="M 538 331v 11h 5.5a 5.5 5.5, 0, 0, 0, 0 -11" transform="rotate(-90,543.5,336.5)"/><rect x="538" y="342" width="11" height="11" transform="rotate(0,543.5,347.5)"/><path d="M 538 353v 11h 5.5a 5.5 5.5, 0, 0, 0, 0 -11" transform="rotate(90,543.5,358.5)"/><rect x="538" y="375" width="11" height="11" transform="rotate(0,543.5,380.5)"/><rect x="538" y="397" width="11" height="11" transform="rotate(0,543.5,402.5)"/><path d="M 538 408v 11h 11a 11 11, 0, 0, 0, -11 -11" transform="rotate(90,543.5,413.5)"/><circle cx="543.5" cy="435.5" r="5.5" transform="rotate(0,543.5,435.5)"/><path d="M 538 650v 11h 5.5a 5.5 5.5, 0, 0, 0, 0 -11" transform="rotate(180,543.5,655.5)"/><path d="M 538 672v 11h 11a 11 11, 0, 0, 0, -11 -11" transform="rotate(-90,543.5,677.5)"/><rect x="538" y="683" width="11" height="11" transform="rotate(0,543.5,688.5)"/><rect x="538" y="705" width="11" height="11" transform="rotate(0,543.5,710.5)"/><path d="M 538 716v 11h 5.5a 5.5 5.5, 0, 0, 0, 0 -11" transform="rotate(90,543.5,721.5)"/><path d="M 538 738v 11h 11a 11 11, 0, 0, 0, -11 -11" transform="rotate(0,543.5,743.5)"/><rect x="538" y="749" width="11" height="11" transform="rotate(0,543.5,754.5)"/><rect x="549" y="287" width="11" height="11" transform="rotate(0,554.5,292.5)"/><rect x="549" y="309" width="11" height="11" transform="rotate(0,554.5,314.5)"/><path d="M 549 342v 11h 5.5a 5.5 5.5, 0, 0, 0, 0 -11" transform="rotate(0,554.5,347.5)"/><path d="M 549 364v 11h 5.5a 5.5 5.5, 0, 0, 0, 0 -11" transform="rotate(-90,554.5,369.5)"/><rect x="549" y="375" width="11" height="11" transform="rotate(0,554.5,380.5)"/><rect x="549" y="397" width="11" height="11" transform="rotate(0,554.5,402.5)"/><circle cx="554.5" cy="424.5" r="5.5" transform="rotate(0,554.5,424.5)"/><path d="M 549 441v 11h 5.5a 5.5 5.5, 0, 0, 0, 0 -11" transform="rotate(180,554.5,446.5)"/><path d="M 549 639v 11h 11a 11 11, 0, 0, 0, -11 -11" transform="rotate(-90,554.5,644.5)"/><rect x="549" y="650" width="11" height="11" transform="rotate(0,554.5,655.5)"/><rect x="549" y="661" width="11" height="11" transform="rotate(0,554.5,666.5)"/><rect x="549" y="672" width="11" height="11" transform="rotate(0,554.5,677.5)"/><rect x="549" y="683" width="11" height="11" transform="rotate(0,554.5,688.5)"/><rect x="549" y="705" width="11" height="11" transform="rotate(0,554.5,710.5)"/><circle cx="554.5" cy="732.5" r="5.5" transform="rotate(0,554.5,732.5)"/><rect x="549" y="749" width="11" height="11" transform="rotate(0,554.5,754.5)"/><path d="M 560 287v 11h 11a 11 11, 0, 0, 0, -11 -11" transform="rotate(0,565.5,292.5)"/><rect x="560" y="298" width="11" height="11" transform="rotate(0,565.5,303.5)"/><rect x="560" y="309" width="11" height="11" transform="rotate(0,565.5,314.5)"/><path d="M 560 320v 11h 11a 11 11, 0, 0, 0, -11 -11" transform="rotate(180,565.5,325.5)"/><circle cx="565.5" cy="358.5" r="5.5" transform="rotate(0,565.5,358.5)"/><rect x="560" y="375" width="11" height="11" transform="rotate(0,565.5,380.5)"/><rect x="560" y="386" width="11" height="11" transform="rotate(0,565.5,391.5)"/><path d="M 560 397v 11h 11a 11 11, 0, 0, 0, -11 -11" transform="rotate(90,565.5,402.5)"/><path d="M 560 430v 11h 5.5a 5.5 5.5, 0, 0, 0, 0 -11" transform="rotate(-90,565.5,435.5)"/><rect x="560" y="441" width="11" height="11" transform="rotate(0,565.5,446.5)"/><path d="M 560 628v 11h 11a 11 11, 0, 0, 0, -11 -11" transform="rotate(-90,565.5,633.5)"/><path d="M 560 639v 11h 11a 11 11, 0, 0, 0, -11 -11" transform="rotate(90,565.5,644.5)"/><rect x="560" y="683" width="11" height="11" transform="rotate(0,565.5,688.5)"/><rect x="560" y="705" width="11" height="11" transform="rotate(0,565.5,710.5)"/><path d="M 560 716v 11h 5.5a 5.5 5.5, 0, 0, 0, 0 -11" transform="rotate(90,565.5,721.5)"/><rect x="560" y="749" width="11" height="11" transform="rotate(0,565.5,754.5)"/><rect x="560" y="760" width="11" height="11" transform="rotate(0,565.5,765.5)"/><path d="M 560 771v 11h 11a 11 11, 0, 0, 0, -11 -11" transform="rotate(180,565.5,776.5)"/><path d="M 571 298v 11h 5.5a 5.5 5.5, 0, 0, 0, 0 -11" transform="rotate(0,576.5,303.5)"/><rect x="571" y="320" width="11" height="11" transform="rotate(0,576.5,325.5)"/><circle cx="576.5" cy="347.5" r="5.5" transform="rotate(0,576.5,347.5)"/><path d="M 571 375v 11h 5.5a 5.5 5.5, 0, 0, 0, 0 -11" transform="rotate(0,576.5,380.5)"/><path d="M 571 419v 11h 5.5a 5.5 5.5, 0, 0, 0, 0 -11" transform="rotate(180,576.5,424.5)"/><path d="M 571 441v 11h 5.5a 5.5 5.5, 0, 0, 0, 0 -11" transform="rotate(0,576.5,446.5)"/><rect x="571" y="628" width="11" height="11" transform="rotate(0,576.5,633.5)"/><path d="M 571 650v 11h 11a 11 11, 0, 0, 0, -11 -11" transform="rotate(-90,576.5,655.5)"/><rect x="571" y="661" width="11" height="11" transform="rotate(0,576.5,666.5)"/><rect x="571" y="672" width="11" height="11" transform="rotate(0,576.5,677.5)"/><path d="M 571 683v 11h 11a 11 11, 0, 0, 0, -11 -11" transform="rotate(90,576.5,688.5)"/><rect x="571" y="705" width="11" height="11" transform="rotate(0,576.5,710.5)"/><path d="M 571 749v 11h 11a 11 11, 0, 0, 0, -11 -11" transform="rotate(0,576.5,754.5)"/><rect x="571" y="760" width="11" height="11" transform="rotate(0,576.5,765.5)"/><path d="M 571 771v 11h 11a 11 11, 0, 0, 0, -11 -11" transform="rotate(90,576.5,776.5)"/><path d="M 582 320v 11h 5.5a 5.5 5.5, 0, 0, 0, 0 -11" transform="rotate(0,587.5,325.5)"/><circle cx="587.5" cy="358.5" r="5.5" transform="rotate(0,587.5,358.5)"/><path d="M 582 408v 11h 5.5a 5.5 5.5, 0, 0, 0, 0 -11" transform="rotate(-90,587.5,413.5)"/><rect x="582" y="419" width="11" height="11" transform="rotate(0,587.5,424.5)"/><path d="M 582 452v 11h 11a 11 11, 0, 0, 0, -11 -11" transform="rotate(-90,587.5,457.5)"/><path d="M 582 463v 11h 5.5a 5.5 5.5, 0, 0, 0, 0 -11" transform="rotate(90,587.5,468.5)"/><path d="M 582 485v 11h 11a 11 11, 0, 0, 0, -11 -11" transform="rotate(-90,587.5,490.5)"/><path d="M 582 496v 11h 5.5a 5.5 5.5, 0, 0, 0, 0 -11" transform="rotate(90,587.5,501.5)"/><path d="M 582 518v 11h 5.5a 5.5 5.5, 0, 0, 0, 0 -11" transform="rotate(180,587.5,523.5)"/><path d="M 582 540v 11h 11a 11 11, 0, 0, 0, -11 -11" transform="rotate(-90,587.5,545.5)"/><rect x="582" y="551" width="11" height="11" transform="rotate(0,587.5,556.5)"/><rect x="582" y="562" width="11" height="11" transform="rotate(0,587.5,567.5)"/><path d="M 582 573v 11h 11a 11 11, 0, 0, 0, -11 -11" transform="rotate(180,587.5,578.5)"/><circle cx="587.5" cy="600.5" r="5.5" transform="rotate(0,587.5,600.5)"/><rect x="582" y="628" width="11" height="11" transform="rotate(0,587.5,633.5)"/><rect x="582" y="639" width="11" height="11" transform="rotate(0,587.5,644.5)"/><rect x="582" y="650" width="11" height="11" transform="rotate(0,587.5,655.5)"/><rect x="582" y="661" width="11" height="11" transform="rotate(0,587.5,666.5)"/><path d="M 582 672v 11h 11a 11 11, 0, 0, 0, -11 -11" transform="rotate(90,587.5,677.5)"/><rect x="582" y="705" width="11" height="11" transform="rotate(0,587.5,710.5)"/><rect x="582" y="716" width="11" height="11" transform="rotate(0,587.5,721.5)"/><path d="M 582 727v 11h 5.5a 5.5 5.5, 0, 0, 0, 0 -11" transform="rotate(90,587.5,732.5)"/><path d="M 593 287v 11h 11a 11 11, 0, 0, 0, -11 -11" transform="rotate(-90,598.5,292.5)"/><rect x="593" y="298" width="11" height="11" transform="rotate(0,598.5,303.5)"/><path d="M 593 309v 11h 11a 11 11, 0, 0, 0, -11 -11" transform="rotate(180,598.5,314.5)"/><circle cx="598.5" cy="369.5" r="5.5" transform="rotate(0,598.5,369.5)"/><path d="M 593 386v 11h 5.5a 5.5 5.5, 0, 0, 0, 0 -11" transform="rotate(-90,598.5,391.5)"/><path d="M 593 397v 11h 11a 11 11, 0, 0, 0, -11 -11" transform="rotate(180,598.5,402.5)"/><path d="M 593 419v 11h 5.5a 5.5 5.5, 0, 0, 0, 0 -11" transform="rotate(0,598.5,424.5)"/><path d="M 593 452v 11h 5.5a 5.5 5.5, 0, 0, 0, 0 -11" transform="rotate(0,598.5,457.5)"/><rect x="593" y="485" width="11" height="11" transform="rotate(0,598.5,490.5)"/><path d="M 593 507v 11h 11a 11 11, 0, 0, 0, -11 -11" transform="rotate(-90,598.5,512.5)"/><rect x="593" y="518" width="11" height="11" transform="rotate(0,598.5,523.5)"/><rect x="593" y="529" width="11" height="11" transform="rotate(0,598.5,534.5)"/><rect x="593" y="540" width="11" height="11" transform="rotate(0,598.5,545.5)"/><rect x="593" y="551" width="11" height="11" transform="rotate(0,598.5,556.5)"/><rect x="593" y="562" width="11" height="11" transform="rotate(0,598.5,567.5)"/><path d="M 593 573v 11h 11a 11 11, 0, 0, 0, -11 -11" transform="rotate(90,598.5,578.5)"/><rect x="593" y="628" width="11" height="11" transform="rotate(0,598.5,633.5)"/><rect x="593" y="650" width="11" height="11" transform="rotate(0,598.5,655.5)"/><path d="M 593 683v 11h 5.5a 5.5 5.5, 0, 0, 0, 0 -11" transform="rotate(180,598.5,688.5)"/><rect x="593" y="705" width="11" height="11" transform="rotate(0,598.5,710.5)"/><rect x="593" y="716" width="11" height="11" transform="rotate(0,598.5,721.5)"/><rect x="604" y="287" width="11" height="11" transform="rotate(0,609.5,292.5)"/><path d="M 604 309v 11h 5.5a 5.5 5.5, 0, 0, 0, 0 -11" transform="rotate(0,609.5,314.5)"/><path d="M 604 342v 11h 5.5a 5.5 5.5, 0, 0, 0, 0 -11" transform="rotate(-90,609.5,347.5)"/><path d="M 604 353v 11h 5.5a 5.5 5.5, 0, 0, 0, 0 -11" transform="rotate(90,609.5,358.5)"/><path d="M 604 375v 11h 5.5a 5.5 5.5, 0, 0, 0, 0 -11" transform="rotate(180,609.5,380.5)"/><rect x="604" y="397" width="11" height="11" transform="rotate(0,609.5,402.5)"/><path d="M 604 408v 11h 5.5a 5.5 5.5, 0, 0, 0, 0 -11" transform="rotate(90,609.5,413.5)"/><circle cx="609.5" cy="446.5" r="5.5" transform="rotate(0,609.5,446.5)"/><rect x="604" y="485" width="11" height="11" transform="rotate(0,609.5,490.5)"/><rect x="604" y="496" width="11" height="11" transform="rotate(0,609.5,501.5)"/><rect x="604" y="507" width="11" height="11" transform="rotate(0,609.5,512.5)"/><rect x="604" y="518" width="11" height="11" transform="rotate(0,609.5,523.5)"/><path d="M 604 540v 11h 11a 11 11, 0, 0, 0, -11 -11" transform="rotate(0,609.5,545.5)"/><rect x="604" y="551" width="11" height="11" transform="rotate(0,609.5,556.5)"/><path d="M 604 562v 11h 11a 11 11, 0, 0, 0, -11 -11" transform="rotate(90,609.5,567.5)"/><path d="M 604 584v 11h 5.5a 5.5 5.5, 0, 0, 0, 0 -11" transform="rotate(-90,609.5,589.5)"/><rect x="604" y="595" width="11" height="11" transform="rotate(0,609.5,600.5)"/><path d="M 604 606v 11h 11a 11 11, 0, 0, 0, -11 -11" transform="rotate(180,609.5,611.5)"/><rect x="604" y="628" width="11" height="11" transform="rotate(0,609.5,633.5)"/><rect x="604" y="639" width="11" height="11" transform="rotate(0,609.5,644.5)"/><path d="M 604 650v 11h 11a 11 11, 0, 0, 0, -11 -11" transform="rotate(90,609.5,655.5)"/><path d="M 604 672v 11h 5.5a 5.5 5.5, 0, 0, 0, 0 -11" transform="rotate(-90,609.5,677.5)"/><rect x="604" y="683" width="11" height="11" transform="rotate(0,609.5,688.5)"/><rect x="604" y="705" width="11" height="11" transform="rotate(0,609.5,710.5)"/><path d="M 604 716v 11h 11a 11 11, 0, 0, 0, -11 -11" transform="rotate(90,609.5,721.5)"/><path d="M 604 760v 11h 5.5a 5.5 5.5, 0, 0, 0, 0 -11" transform="rotate(-90,609.5,765.5)"/><path d="M 604 771v 11h 11a 11 11, 0, 0, 0, -11 -11" transform="rotate(180,609.5,776.5)"/><path d="M 615 287v 11h 5.5a 5.5 5.5, 0, 0, 0, 0 -11" transform="rotate(0,620.5,292.5)"/><circle cx="620.5" cy="325.5" r="5.5" transform="rotate(0,620.5,325.5)"/><path d="M 615 364v 11h 5.5a 5.5 5.5, 0, 0, 0, 0 -11" transform="rotate(-90,620.5,369.5)"/><rect x="615" y="375" width="11" height="11" transform="rotate(0,620.5,380.5)"/><rect x="615" y="386" width="11" height="11" transform="rotate(0,620.5,391.5)"/><path d="M 615 397v 11h 11a 11 11, 0, 0, 0, -11 -11" transform="rotate(90,620.5,402.5)"/><path d="M 615 419v 11h 5.5a 5.5 5.5, 0, 0, 0, 0 -11" transform="rotate(180,620.5,424.5)"/><path d="M 615 463v 11h 5.5a 5.5 5.5, 0, 0, 0, 0 -11" transform="rotate(180,620.5,468.5)"/><path d="M 615 485v 11h 5.5a 5.5 5.5, 0, 0, 0, 0 -11" transform="rotate(0,620.5,490.5)"/><rect x="615" y="507" width="11" height="11" transform="rotate(0,620.5,512.5)"/><rect x="615" y="518" width="11" height="11" transform="rotate(0,620.5,523.5)"/><path d="M 615 529v 11h 5.5a 5.5 5.5, 0, 0, 0, 0 -11" transform="rotate(90,620.5,534.5)"/><path d="M 615 551v 11h 5.5a 5.5 5.5, 0, 0, 0, 0 -11" transform="rotate(0,620.5,556.5)"/><path d="M 615 573v 11h 5.5a 5.5 5.5, 0, 0, 0, 0 -11" transform="rotate(180,620.5,578.5)"/><rect x="615" y="595" width="11" height="11" transform="rotate(0,620.5,600.5)"/><path d="M 615 606v 11h 11a 11 11, 0, 0, 0, -11 -11" transform="rotate(90,620.5,611.5)"/><path d="M 615 628v 11h 11a 11 11, 0, 0, 0, -11 -11" transform="rotate(0,620.5,633.5)"/><path d="M 615 639v 11h 11a 11 11, 0, 0, 0, -11 -11" transform="rotate(90,620.5,644.5)"/><circle cx="620.5" cy="666.5" r="5.5" transform="rotate(0,620.5,666.5)"/><rect x="615" y="683" width="11" height="11" transform="rotate(0,620.5,688.5)"/><rect x="615" y="705" width="11" height="11" transform="rotate(0,620.5,710.5)"/><circle cx="620.5" cy="732.5" r="5.5" transform="rotate(0,620.5,732.5)"/><path d="M 615 749v 11h 5.5a 5.5 5.5, 0, 0, 0, 0 -11" transform="rotate(180,620.5,754.5)"/><path d="M 615 771v 11h 5.5a 5.5 5.5, 0, 0, 0, 0 -11" transform="rotate(0,620.5,776.5)"/><path d="M 626 331v 11h 5.5a 5.5 5.5, 0, 0, 0, 0 -11" transform="rotate(180,631.5,336.5)"/><circle cx="631.5" cy="358.5" r="5.5" transform="rotate(0,631.5,358.5)"/><path d="M 626 375v 11h 11a 11 11, 0, 0, 0, -11 -11" transform="rotate(0,631.5,380.5)"/><rect x="626" y="386" width="11" height="11" transform="rotate(0,631.5,391.5)"/><path d="M 626 408v 11h 5.5a 5.5 5.5, 0, 0, 0, 0 -11" transform="rotate(-90,631.5,413.5)"/><rect x="626" y="419" width="11" height="11" transform="rotate(0,631.5,424.5)"/><path d="M 626 430v 11h 5.5a 5.5 5.5, 0, 0, 0, 0 -11" transform="rotate(90,631.5,435.5)"/><path d="M 626 452v 11h 5.5a 5.5 5.5, 0, 0, 0, 0 -11" transform="rotate(-90,631.5,457.5)"/><rect x="626" y="463" width="11" height="11" transform="rotate(0,631.5,468.5)"/><path d="M 626 474v 11h 11a 11 11, 0, 0, 0, -11 -11" transform="rotate(180,631.5,479.5)"/><path d="M 626 496v 11h 5.5a 5.5 5.5, 0, 0, 0, 0 -11" transform="rotate(-90,631.5,501.5)"/><rect x="626" y="507" width="11" height="11" transform="rotate(0,631.5,512.5)"/><path d="M 626 562v 11h 5.5a 5.5 5.5, 0, 0, 0, 0 -11" transform="rotate(-90,631.5,567.5)"/><rect x="626" y="573" width="11" height="11" transform="rotate(0,631.5,578.5)"/><rect x="626" y="595" width="11" height="11" transform="rotate(0,631.5,600.5)"/><path d="M 626 617v 11h 5.5a 5.5 5.5, 0, 0, 0, 0 -11" transform="rotate(180,631.5,622.5)"/><path d="M 626 650v 11h 5.5a 5.5 5.5, 0, 0, 0, 0 -11" transform="rotate(180,631.5,655.5)"/><path d="M 626 672v 11h 5.5a 5.5 5.5, 0, 0, 0, 0 -11" transform="rotate(-90,631.5,677.5)"/><rect x="626" y="683" width="11" height="11" transform="rotate(0,631.5,688.5)"/><rect x="626" y="705" width="11" height="11" transform="rotate(0,631.5,710.5)"/><path d="M 626 716v 11h 11a 11 11, 0, 0, 0, -11 -11" transform="rotate(180,631.5,721.5)"/><rect x="626" y="749" width="11" height="11" transform="rotate(0,631.5,754.5)"/><path d="M 637 298v 11h 5.5a 5.5 5.5, 0, 0, 0, 0 -11" transform="rotate(-90,642.5,303.5)"/><rect x="637" y="309" width="11" height="11" transform="rotate(0,642.5,314.5)"/><rect x="637" y="320" width="11" height="11" transform="rotate(0,642.5,325.5)"/><rect x="637" y="331" width="11" height="11" transform="rotate(0,642.5,336.5)"/><circle cx="642.5" cy="369.5" r="5.5" transform="rotate(0,642.5,369.5)"/><path d="M 637 386v 11h 11a 11 11, 0, 0, 0, -11 -11" transform="rotate(0,642.5,391.5)"/><path d="M 637 397v 11h 11a 11 11, 0, 0, 0, -11 -11" transform="rotate(180,642.5,402.5)"/><path d="M 637 441v 11h 5.5a 5.5 5.5, 0, 0, 0, 0 -11" transform="rotate(180,642.5,446.5)"/><rect x="637" y="463" width="11" height="11" transform="rotate(0,642.5,468.5)"/><rect x="637" y="474" width="11" height="11" transform="rotate(0,642.5,479.5)"/><rect x="637" y="507" width="11" height="11" transform="rotate(0,642.5,512.5)"/><path d="M 637 518v 11h 11a 11 11, 0, 0, 0, -11 -11" transform="rotate(180,642.5,523.5)"/><path d="M 637 540v 11h 11a 11 11, 0, 0, 0, -11 -11" transform="rotate(-90,642.5,545.5)"/><path d="M 637 551v 11h 11a 11 11, 0, 0, 0, -11 -11" transform="rotate(180,642.5,556.5)"/><path d="M 637 573v 11h 5.5a 5.5 5.5, 0, 0, 0, 0 -11" transform="rotate(0,642.5,578.5)"/><path d="M 637 595v 11h 11a 11 11, 0, 0, 0, -11 -11" transform="rotate(0,642.5,600.5)"/><rect x="637" y="606" width="11" height="11" transform="rotate(0,642.5,611.5)"/><path d="M 637 617v 11h 11a 11 11, 0, 0, 0, -11 -11" transform="rotate(90,642.5,622.5)"/><rect x="637" y="650" width="11" height="11" transform="rotate(0,642.5,655.5)"/><path d="M 637 661v 11h 5.5a 5.5 5.5, 0, 0, 0, 0 -11" transform="rotate(90,642.5,666.5)"/><rect x="637" y="683" width="11" height="11" transform="rotate(0,642.5,688.5)"/><rect x="637" y="705" width="11" height="11" transform="rotate(0,642.5,710.5)"/><rect x="637" y="716" width="11" height="11" transform="rotate(0,642.5,721.5)"/><rect x="637" y="749" width="11" height="11" transform="rotate(0,642.5,754.5)"/><circle cx="653.5" cy="292.5" r="5.5" transform="rotate(0,653.5,292.5)"/><path d="M 648 320v 11h 11a 11 11, 0, 0, 0, -11 -11" transform="rotate(0,653.5,325.5)"/><path d="M 648 331v 11h 11a 11 11, 0, 0, 0, -11 -11" transform="rotate(90,653.5,336.5)"/><circle cx="653.5" cy="358.5" r="5.5" transform="rotate(0,653.5,358.5)"/><path d="M 648 375v 11h 5.5a 5.5 5.5, 0, 0, 0, 0 -11" transform="rotate(180,653.5,380.5)"/><path d="M 648 397v 11h 11a 11 11, 0, 0, 0, -11 -11" transform="rotate(0,653.5,402.5)"/><rect x="648" y="408" width="11" height="11" transform="rotate(0,653.5,413.5)"/><rect x="648" y="419" width="11" height="11" transform="rotate(0,653.5,424.5)"/><rect x="648" y="430" width="11" height="11" transform="rotate(0,653.5,435.5)"/><rect x="648" y="441" width="11" height="11" transform="rotate(0,653.5,446.5)"/><rect x="648" y="452" width="11" height="11" transform="rotate(0,653.5,457.5)"/><rect x="648" y="463" width="11" height="11" transform="rotate(0,653.5,468.5)"/><path d="M 648 474v 11h 11a 11 11, 0, 0, 0, -11 -11" transform="rotate(90,653.5,479.5)"/><rect x="648" y="507" width="11" height="11" transform="rotate(0,653.5,512.5)"/><rect x="648" y="518" width="11" height="11" transform="rotate(0,653.5,523.5)"/><rect x="648" y="529" width="11" height="11" transform="rotate(0,653.5,534.5)"/><rect x="648" y="540" width="11" height="11" transform="rotate(0,653.5,545.5)"/><rect x="648" y="551" width="11" height="11" transform="rotate(0,653.5,556.5)"/><path d="M 648 606v 11h 5.5a 5.5 5.5, 0, 0, 0, 0 -11" transform="rotate(0,653.5,611.5)"/><circle cx="653.5" cy="633.5" r="5.5" transform="rotate(0,653.5,633.5)"/><path d="M 648 650v 11h 5.5a 5.5 5.5, 0, 0, 0, 0 -11" transform="rotate(0,653.5,655.5)"/><path d="M 648 672v 11h 5.5a 5.5 5.5, 0, 0, 0, 0 -11" transform="rotate(-90,653.5,677.5)"/><rect x="648" y="683" width="11" height="11" transform="rotate(0,653.5,688.5)"/><rect x="648" y="694" width="11" height="11" transform="rotate(0,653.5,699.5)"/><rect x="648" y="705" width="11" height="11" transform="rotate(0,653.5,710.5)"/><rect x="648" y="716" width="11" height="11" transform="rotate(0,653.5,721.5)"/><rect x="648" y="727" width="11" height="11" transform="rotate(0,653.5,732.5)"/><rect x="648" y="738" width="11" height="11" transform="rotate(0,653.5,743.5)"/><rect x="648" y="749" width="11" height="11" transform="rotate(0,653.5,754.5)"/><rect x="648" y="760" width="11" height="11" transform="rotate(0,653.5,765.5)"/><path d="M 648 771v 11h 5.5a 5.5 5.5, 0, 0, 0, 0 -11" transform="rotate(90,653.5,776.5)"/><path d="M 659 375v 11h 5.5a 5.5 5.5, 0, 0, 0, 0 -11" transform="rotate(0,664.5,380.5)"/><path d="M 659 408v 11h 11a 11 11, 0, 0, 0, -11 -11" transform="rotate(0,664.5,413.5)"/><rect x="659" y="419" width="11" height="11" transform="rotate(0,664.5,424.5)"/><rect x="659" y="430" width="11" height="11" transform="rotate(0,664.5,435.5)"/><rect x="659" y="452" width="11" height="11" transform="rotate(0,664.5,457.5)"/><path d="M 659 463v 11h 11a 11 11, 0, 0, 0, -11 -11" transform="rotate(90,664.5,468.5)"/><path d="M 659 485v 11h 11a 11 11, 0, 0, 0, -11 -11" transform="rotate(-90,664.5,490.5)"/><rect x="659" y="496" width="11" height="11" transform="rotate(0,664.5,501.5)"/><rect x="659" y="507" width="11" height="11" transform="rotate(0,664.5,512.5)"/><rect x="659" y="551" width="11" height="11" transform="rotate(0,664.5,556.5)"/><circle cx="664.5" cy="578.5" r="5.5" transform="rotate(0,664.5,578.5)"/><path d="M 659 595v 11h 5.5a 5.5 5.5, 0, 0, 0, 0 -11" transform="rotate(180,664.5,600.5)"/><circle cx="664.5" cy="622.5" r="5.5" transform="rotate(0,664.5,622.5)"/><path d="M 659 661v 11h 5.5a 5.5 5.5, 0, 0, 0, 0 -11" transform="rotate(180,664.5,666.5)"/><rect x="659" y="683" width="11" height="11" transform="rotate(0,664.5,688.5)"/><rect x="659" y="727" width="11" height="11" transform="rotate(0,664.5,732.5)"/><rect x="659" y="749" width="11" height="11" transform="rotate(0,664.5,754.5)"/><circle cx="675.5" cy="391.5" r="5.5" transform="rotate(0,675.5,391.5)"/><path d="M 670 419v 11h 11a 11 11, 0, 0, 0, -11 -11" transform="rotate(0,675.5,424.5)"/><path d="M 670 430v 11h 11a 11 11, 0, 0, 0, -11 -11" transform="rotate(90,675.5,435.5)"/><path d="M 670 452v 11h 5.5a 5.5 5.5, 0, 0, 0, 0 -11" transform="rotate(0,675.5,457.5)"/><path d="M 670 474v 11h 11a 11 11, 0, 0, 0, -11 -11" transform="rotate(-90,675.5,479.5)"/><rect x="670" y="485" width="11" height="11" transform="rotate(0,675.5,490.5)"/><rect x="670" y="496" width="11" height="11" transform="rotate(0,675.5,501.5)"/><rect x="670" y="507" width="11" height="11" transform="rotate(0,675.5,512.5)"/><circle cx="675.5" cy="534.5" r="5.5" transform="rotate(0,675.5,534.5)"/><rect x="670" y="551" width="11" height="11" transform="rotate(0,675.5,556.5)"/><path d="M 670 595v 11h 5.5a 5.5 5.5, 0, 0, 0, 0 -11" transform="rotate(0,675.5,600.5)"/><path d="M 670 650v 11h 11a 11 11, 0, 0, 0, -11 -11" transform="rotate(-90,675.5,655.5)"/><path d="M 670 661v 11h 11a 11 11, 0, 0, 0, -11 -11" transform="rotate(90,675.5,666.5)"/><rect x="670" y="683" width="11" height="11" transform="rotate(0,675.5,688.5)"/><circle cx="675.5" cy="710.5" r="5.5" transform="rotate(0,675.5,710.5)"/><rect x="670" y="727" width="11" height="11" transform="rotate(0,675.5,732.5)"/><path d="M 670 749v 11h 5.5a 5.5 5.5, 0, 0, 0, 0 -11" transform="rotate(0,675.5,754.5)"/><circle cx="686.5" cy="380.5" r="5.5" transform="rotate(0,686.5,380.5)"/><path d="M 681 463v 11h 5.5a 5.5 5.5, 0, 0, 0, 0 -11" transform="rotate(-90,686.5,468.5)"/><rect x="681" y="474" width="11" height="11" transform="rotate(0,686.5,479.5)"/><path d="M 681 496v 11h 11a 11 11, 0, 0, 0, -11 -11" transform="rotate(0,686.5,501.5)"/><rect x="681" y="507" width="11" height="11" transform="rotate(0,686.5,512.5)"/><rect x="681" y="551" width="11" height="11" transform="rotate(0,686.5,556.5)"/><circle cx="686.5" cy="578.5" r="5.5" transform="rotate(0,686.5,578.5)"/><path d="M 681 617v 11h 11a 11 11, 0, 0, 0, -11 -11" transform="rotate(-90,686.5,622.5)"/><path d="M 681 628v 11h 5.5a 5.5 5.5, 0, 0, 0, 0 -11" transform="rotate(90,686.5,633.5)"/><rect x="681" y="650" width="11" height="11" transform="rotate(0,686.5,655.5)"/><rect x="681" y="683" width="11" height="11" transform="rotate(0,686.5,688.5)"/><rect x="681" y="727" width="11" height="11" transform="rotate(0,686.5,732.5)"/><circle cx="686.5" cy="776.5" r="5.5" transform="rotate(0,686.5,776.5)"/><path d="M 692 408v 11h 5.5a 5.5 5.5, 0, 0, 0, 0 -11" transform="rotate(-90,697.5,413.5)"/><rect x="692" y="419" width="11" height="11" transform="rotate(0,697.5,424.5)"/><path d="M 692 430v 11h 11a 11 11, 0, 0, 0, -11 -11" transform="rotate(180,697.5,435.5)"/><circle cx="697.5" cy="457.5" r="5.5" transform="rotate(0,697.5,457.5)"/><path d="M 692 474v 11h 11a 11 11, 0, 0, 0, -11 -11" transform="rotate(0,697.5,479.5)"/><path d="M 692 485v 11h 11a 11 11, 0, 0, 0, -11 -11" transform="rotate(180,697.5,490.5)"/><path d="M 692 507v 11h 11a 11 11, 0, 0, 0, -11 -11" transform="rotate(0,697.5,512.5)"/><rect x="692" y="518" width="11" height="11" transform="rotate(0,697.5,523.5)"/><rect x="692" y="529" width="11" height="11" transform="rotate(0,697.5,534.5)"/><rect x="692" y="540" width="11" height="11" transform="rotate(0,697.5,545.5)"/><rect x="692" y="551" width="11" height="11" transform="rotate(0,697.5,556.5)"/><path d="M 692 562v 11h 5.5a 5.5 5.5, 0, 0, 0, 0 -11" transform="rotate(90,697.5,567.5)"/><path d="M 692 595v 11h 11a 11 11, 0, 0, 0, -11 -11" transform="rotate(-90,697.5,600.5)"/><rect x="692" y="606" width="11" height="11" transform="rotate(0,697.5,611.5)"/><rect x="692" y="617" width="11" height="11" transform="rotate(0,697.5,622.5)"/><rect x="692" y="650" width="11" height="11" transform="rotate(0,697.5,655.5)"/><rect x="692" y="683" width="11" height="11" transform="rotate(0,697.5,688.5)"/><rect x="692" y="694" width="11" height="11" transform="rotate(0,697.5,699.5)"/><rect x="692" y="705" width="11" height="11" transform="rotate(0,697.5,710.5)"/><rect x="692" y="716" width="11" height="11" transform="rotate(0,697.5,721.5)"/><path d="M 692 727v 11h 11a 11 11, 0, 0, 0, -11 -11" transform="rotate(90,697.5,732.5)"/><path d="M 692 749v 11h 5.5a 5.5 5.5, 0, 0, 0, 0 -11" transform="rotate(180,697.5,754.5)"/><path d="M 703 419v 11h 11a 11 11, 0, 0, 0, -11 -11" transform="rotate(0,708.5,424.5)"/><path d="M 703 430v 11h 11a 11 11, 0, 0, 0, -11 -11" transform="rotate(90,708.5,435.5)"/><path d="M 703 485v 11h 11a 11 11, 0, 0, 0, -11 -11" transform="rotate(0,708.5,490.5)"/><path d="M 703 496v 11h 11a 11 11, 0, 0, 0, -11 -11" transform="rotate(180,708.5,501.5)"/><path d="M 703 529v 11h 5.5a 5.5 5.5, 0, 0, 0, 0 -11" transform="rotate(0,708.5,534.5)"/><path d="M 703 584v 11h 5.5a 5.5 5.5, 0, 0, 0, 0 -11" transform="rotate(-90,708.5,589.5)"/><rect x="703" y="595" width="11" height="11" transform="rotate(0,708.5,600.5)"/><rect x="703" y="617" width="11" height="11" transform="rotate(0,708.5,622.5)"/><path d="M 703 639v 11h 11a 11 11, 0, 0, 0, -11 -11" transform="rotate(-90,708.5,644.5)"/><path d="M 703 650v 11h 11a 11 11, 0, 0, 0, -11 -11" transform="rotate(90,708.5,655.5)"/><rect x="703" y="683" width="11" height="11" transform="rotate(0,708.5,688.5)"/><rect x="703" y="749" width="11" height="11" transform="rotate(0,708.5,754.5)"/><path d="M 703 771v 11h 5.5a 5.5 5.5, 0, 0, 0, 0 -11" transform="rotate(180,708.5,776.5)"/><circle cx="719.5" cy="391.5" r="5.5" transform="rotate(0,719.5,391.5)"/><circle cx="719.5" cy="413.5" r="5.5" transform="rotate(0,719.5,413.5)"/><path d="M 714 441v 11h 5.5a 5.5 5.5, 0, 0, 0, 0 -11" transform="rotate(-90,719.5,446.5)"/><rect x="714" y="452" width="11" height="11" transform="rotate(0,719.5,457.5)"/><rect x="714" y="463" width="11" height="11" transform="rotate(0,719.5,468.5)"/><path d="M 714 474v 11h 5.5a 5.5 5.5, 0, 0, 0, 0 -11" transform="rotate(90,719.5,479.5)"/><path d="M 714 496v 11h 11a 11 11, 0, 0, 0, -11 -11" transform="rotate(0,719.5,501.5)"/><path d="M 714 507v 11h 5.5a 5.5 5.5, 0, 0, 0, 0 -11" transform="rotate(90,719.5,512.5)"/><circle cx="719.5" cy="578.5" r="5.5" transform="rotate(0,719.5,578.5)"/><rect x="714" y="595" width="11" height="11" transform="rotate(0,719.5,600.5)"/><path d="M 714 617v 11h 11a 11 11, 0, 0, 0, -11 -11" transform="rotate(0,719.5,622.5)"/><rect x="714" y="628" width="11" height="11" transform="rotate(0,719.5,633.5)"/><rect x="714" y="639" width="11" height="11" transform="rotate(0,719.5,644.5)"/><path d="M 714 672v 11h 5.5a 5.5 5.5, 0, 0, 0, 0 -11" transform="rotate(-90,719.5,677.5)"/><rect x="714" y="683" width="11" height="11" transform="rotate(0,719.5,688.5)"/><rect x="714" y="694" width="11" height="11" transform="rotate(0,719.5,699.5)"/><path d="M 714 705v 11h 5.5a 5.5 5.5, 0, 0, 0, 0 -11" transform="rotate(90,719.5,710.5)"/><path d="M 714 727v 11h 11a 11 11, 0, 0, 0, -11 -11" transform="rotate(-90,719.5,732.5)"/><rect x="714" y="738" width="11" height="11" transform="rotate(0,719.5,743.5)"/><rect x="714" y="749" width="11" height="11" transform="rotate(0,719.5,754.5)"/><rect x="714" y="760" width="11" height="11" transform="rotate(0,719.5,765.5)"/><rect x="714" y="771" width="11" height="11" transform="rotate(0,719.5,776.5)"/><path d="M 725 419v 11h 5.5a 5.5 5.5, 0, 0, 0, 0 -11" transform="rotate(180,730.5,424.5)"/><rect x="725" y="452" width="11" height="11" transform="rotate(0,730.5,457.5)"/><circle cx="730.5" cy="490.5" r="5.5" transform="rotate(0,730.5,490.5)"/><circle cx="730.5" cy="534.5" r="5.5" transform="rotate(0,730.5,534.5)"/><path d="M 725 551v 11h 5.5a 5.5 5.5, 0, 0, 0, 0 -11" transform="rotate(180,730.5,556.5)"/><path d="M 725 584v 11h 11a 11 11, 0, 0, 0, -11 -11" transform="rotate(-90,730.5,589.5)"/><rect x="725" y="595" width="11" height="11" transform="rotate(0,730.5,600.5)"/><path d="M 725 606v 11h 5.5a 5.5 5.5, 0, 0, 0, 0 -11" transform="rotate(90,730.5,611.5)"/><path d="M 725 639v 11h 5.5a 5.5 5.5, 0, 0, 0, 0 -11" transform="rotate(0,730.5,644.5)"/><rect x="725" y="683" width="11" height="11" transform="rotate(0,730.5,688.5)"/><path d="M 725 716v 11h 11a 11 11, 0, 0, 0, -11 -11" transform="rotate(-90,730.5,721.5)"/><rect x="725" y="727" width="11" height="11" transform="rotate(0,730.5,732.5)"/><rect x="725" y="749" width="11" height="11" transform="rotate(0,730.5,754.5)"/><path d="M 725 771v 11h 5.5a 5.5 5.5, 0, 0, 0, 0 -11" transform="rotate(0,730.5,776.5)"/><circle cx="741.5" cy="391.5" r="5.5" transform="rotate(0,741.5,391.5)"/><path d="M 736 408v 11h 5.5a 5.5 5.5, 0, 0, 0, 0 -11" transform="rotate(-90,741.5,413.5)"/><path d="M 736 419v 11h 11a 11 11, 0, 0, 0, -11 -11" transform="rotate(90,741.5,424.5)"/><path d="M 736 441v 11h 5.5a 5.5 5.5, 0, 0, 0, 0 -11" transform="rotate(-90,741.5,446.5)"/><rect x="736" y="452" width="11" height="11" transform="rotate(0,741.5,457.5)"/><rect x="736" y="463" width="11" height="11" transform="rotate(0,741.5,468.5)"/><path d="M 736 474v 11h 5.5a 5.5 5.5, 0, 0, 0, 0 -11" transform="rotate(90,741.5,479.5)"/><circle cx="741.5" cy="501.5" r="5.5" transform="rotate(0,741.5,501.5)"/><circle cx="741.5" cy="523.5" r="5.5" transform="rotate(0,741.5,523.5)"/><path d="M 736 540v 11h 5.5a 5.5 5.5, 0, 0, 0, 0 -11" transform="rotate(-90,741.5,545.5)"/><rect x="736" y="551" width="11" height="11" transform="rotate(0,741.5,556.5)"/><path d="M 736 562v 11h 5.5a 5.5 5.5, 0, 0, 0, 0 -11" transform="rotate(90,741.5,567.5)"/><path d="M 736 584v 11h 11a 11 11, 0, 0, 0, -11 -11" transform="rotate(0,741.5,589.5)"/><path d="M 736 595v 11h 11a 11 11, 0, 0, 0, -11 -11" transform="rotate(90,741.5,600.5)"/><circle cx="741.5" cy="633.5" r="5.5" transform="rotate(0,741.5,633.5)"/><circle cx="741.5" cy="655.5" r="5.5" transform="rotate(0,741.5,655.5)"/><path d="M 736 683v 11h 5.5a 5.5 5.5, 0, 0, 0, 0 -11" transform="rotate(0,741.5,688.5)"/><path d="M 736 716v 11h 11a 11 11, 0, 0, 0, -11 -11" transform="rotate(0,741.5,721.5)"/><path d="M 736 727v 11h 11a 11 11, 0, 0, 0, -11 -11" transform="rotate(90,741.5,732.5)"/><path d="M 736 749v 11h 5.5a 5.5 5.5, 0, 0, 0, 0 -11" transform="rotate(0,741.5,754.5)"/></clipPath><clipPath id="clip-path-corners-square-color-0-0"><path d="M 252 287v 11h 11a 11 11, 0, 0, 0, -11 -11" transform="rotate(-90,257.5,292.5)"/><rect x="252" y="298" width="11" height="11" transform="rotate(0,257.5,303.5)"/><rect x="252" y="309" width="11" height="11" transform="rotate(0,257.5,314.5)"/><rect x="252" y="320" width="11" height="11" transform="rotate(0,257.5,325.5)"/><rect x="252" y="331" width="11" height="11" transform="rotate(0,257.5,336.5)"/><rect x="252" y="342" width="11" height="11" transform="rotate(0,257.5,347.5)"/><path d="M 252 353v 11h 11a 11 11, 0, 0, 0, -11 -11" transform="rotate(180,257.5,358.5)"/><rect x="263" y="287" width="11" height="11" transform="rotate(0,268.5,292.5)"/><rect x="263" y="353" width="11" height="11" transform="rotate(0,268.5,358.5)"/><rect x="274" y="287" width="11" height="11" transform="rotate(0,279.5,292.5)"/><rect x="274" y="353" width="11" height="11" transform="rotate(0,279.5,358.5)"/><rect x="285" y="287" width="11" height="11" transform="rotate(0,290.5,292.5)"/><rect x="285" y="353" width="11" height="11" transform="rotate(0,290.5,358.5)"/><rect x="296" y="287" width="11" height="11" transform="rotate(0,301.5,292.5)"/><rect x="296" y="353" width="11" height="11" transform="rotate(0,301.5,358.5)"/><rect x="307" y="287" width="11" height="11" transform="rotate(0,312.5,292.5)"/><rect x="307" y="353" width="11" height="11" transform="rotate(0,312.5,358.5)"/><path d="M 318 287v 11h 11a 11 11, 0, 0, 0, -11 -11" transform="rotate(0,323.5,292.5)"/><rect x="318" y="298" width="11" height="11" transform="rotate(0,323.5,303.5)"/><rect x="318" y="309" width="11" height="11" transform="rotate(0,323.5,314.5)"/><rect x="318" y="320" width="11" height="11" transform="rotate(0,323.5,325.5)"/><rect x="318" y="331" width="11" height="11" transform="rotate(0,323.5,336.5)"/><rect x="318" y="342" width="11" height="11" transform="rotate(0,323.5,347.5)"/><path d="M 318 353v 11h 11a 11 11, 0, 0, 0, -11 -11" transform="rotate(90,323.5,358.5)"/></clipPath><clipPath id="clip-path-corners-dot-color-0-0"><path d="M 274 309v 11h 11a 11 11, 0, 0, 0, -11 -11" transform="rotate(-90,279.5,314.5)"/><rect x="274" y="320" width="11" height="11" transform="rotate(0,279.5,325.5)"/><path d="M 274 331v 11h 11a 11 11, 0, 0, 0, -11 -11" transform="rotate(180,279.5,336.5)"/><rect x="285" y="309" width="11" height="11" transform="rotate(0,290.5,314.5)"/><rect x="285" y="320" width="11" height="11" transform="rotate(0,290.5,325.5)"/><rect x="285" y="331" width="11" height="11" transform="rotate(0,290.5,336.5)"/><path d="M 296 309v 11h 11a 11 11, 0, 0, 0, -11 -11" transform="rotate(0,301.5,314.5)"/><rect x="296" y="320" width="11" height="11" transform="rotate(0,301.5,325.5)"/><path d="M 296 331v 11h 11a 11 11, 0, 0, 0, -11 -11" transform="rotate(90,301.5,336.5)"/></clipPath><clipPath id="clip-path-corners-square-color-1-0"><path d="M 670 287v 11h 11a 11 11, 0, 0, 0, -11 -11" transform="rotate(-90,675.5,292.5)"/><rect x="670" y="298" width="11" height="11" transform="rotate(0,675.5,303.5)"/><rect x="670" y="309" width="11" height="11" transform="rotate(0,675.5,314.5)"/><rect x="670" y="320" width="11" height="11" transform="rotate(0,675.5,325.5)"/><rect x="670" y="331" width="11" height="11" transform="rotate(0,675.5,336.5)"/><rect x="670" y="342" width="11" height="11" transform="rotate(0,675.5,347.5)"/><path d="M 670 353v 11h 11a 11 11, 0, 0, 0, -11 -11" transform="rotate(180,675.5,358.5)"/><rect x="681" y="287" width="11" height="11" transform="rotate(0,686.5,292.5)"/><rect x="681" y="353" width="11" height="11" transform="rotate(0,686.5,358.5)"/><rect x="692" y="287" width="11" height="11" transform="rotate(0,697.5,292.5)"/><rect x="692" y="353" width="11" height="11" transform="rotate(0,697.5,358.5)"/><rect x="703" y="287" width="11" height="11" transform="rotate(0,708.5,292.5)"/><rect x="703" y="353" width="11" height="11" transform="rotate(0,708.5,358.5)"/><rect x="714" y="287" width="11" height="11" transform="rotate(0,719.5,292.5)"/><rect x="714" y="353" width="11" height="11" transform="rotate(0,719.5,358.5)"/><rect x="725" y="287" width="11" height="11" transform="rotate(0,730.5,292.5)"/><rect x="725" y="353" width="11" height="11" transform="rotate(0,730.5,358.5)"/><path d="M 736 287v 11h 11a 11 11, 0, 0, 0, -11 -11" transform="rotate(0,741.5,292.5)"/><rect x="736" y="298" width="11" height="11" transform="rotate(0,741.5,303.5)"/><rect x="736" y="309" width="11" height="11" transform="rotate(0,741.5,314.5)"/><rect x="736" y="320" width="11" height="11" transform="rotate(0,741.5,325.5)"/><rect x="736" y="331" width="11" height="11" transform="rotate(0,741.5,336.5)"/><rect x="736" y="342" width="11" height="11" transform="rotate(0,741.5,347.5)"/><path d="M 736 353v 11h 11a 11 11, 0, 0, 0, -11 -11" transform="rotate(90,741.5,358.5)"/></clipPath><clipPath id="clip-path-corners-dot-color-1-0"><path d="M 692 309v 11h 11a 11 11, 0, 0, 0, -11 -11" transform="rotate(-90,697.5,314.5)"/><rect x="692" y="320" width="11" height="11" transform="rotate(0,697.5,325.5)"/><path d="M 692 331v 11h 11a 11 11, 0, 0, 0, -11 -11" transform="rotate(180,697.5,336.5)"/><rect x="703" y="309" width="11" height="11" transform="rotate(0,708.5,314.5)"/><rect x="703" y="320" width="11" height="11" transform="rotate(0,708.5,325.5)"/><rect x="703" y="331" width="11" height="11" transform="rotate(0,708.5,336.5)"/><path d="M 714 309v 11h 11a 11 11, 0, 0, 0, -11 -11" transform="rotate(0,719.5,314.5)"/><rect x="714" y="320" width="11" height="11" transform="rotate(0,719.5,325.5)"/><path d="M 714 331v 11h 11a 11 11, 0, 0, 0, -11 -11" transform="rotate(90,719.5,336.5)"/></clipPath><clipPath id="clip-path-corners-square-color-0-1"><path d="M 252 705v 11h 11a 11 11, 0, 0, 0, -11 -11" transform="rotate(-90,257.5,710.5)"/><rect x="252" y="716" width="11" height="11" transform="rotate(0,257.5,721.5)"/><rect x="252" y="727" width="11" height="11" transform="rotate(0,257.5,732.5)"/><rect x="252" y="738" width="11" height="11" transform="rotate(0,257.5,743.5)"/><rect x="252" y="749" width="11" height="11" transform="rotate(0,257.5,754.5)"/><rect x="252" y="760" width="11" height="11" transform="rotate(0,257.5,765.5)"/><path d="M 252 771v 11h 11a 11 11, 0, 0, 0, -11 -11" transform="rotate(180,257.5,776.5)"/><rect x="263" y="705" width="11" height="11" transform="rotate(0,268.5,710.5)"/><rect x="263" y="771" width="11" height="11" transform="rotate(0,268.5,776.5)"/><rect x="274" y="705" width="11" height="11" transform="rotate(0,279.5,710.5)"/><rect x="274" y="771" width="11" height="11" transform="rotate(0,279.5,776.5)"/><rect x="285" y="705" width="11" height="11" transform="rotate(0,290.5,710.5)"/><rect x="285" y="771" width="11" height="11" transform="rotate(0,290.5,776.5)"/><rect x="296" y="705" width="11" height="11" transform="rotate(0,301.5,710.5)"/><rect x="296" y="771" width="11" height="11" transform="rotate(0,301.5,776.5)"/><rect x="307" y="705" width="11" height="11" transform="rotate(0,312.5,710.5)"/><rect x="307" y="771" width="11" height="11" transform="rotate(0,312.5,776.5)"/><path d="M 318 705v 11h 11a 11 11, 0, 0, 0, -11 -11" transform="rotate(0,323.5,710.5)"/><rect x="318" y="716" width="11" height="11" transform="rotate(0,323.5,721.5)"/><rect x="318" y="727" width="11" height="11" transform="rotate(0,323.5,732.5)"/><rect x="318" y="738" width="11" height="11" transform="rotate(0,323.5,743.5)"/><rect x="318" y="749" width="11" height="11" transform="rotate(0,323.5,754.5)"/><rect x="318" y="760" width="11" height="11" transform="rotate(0,323.5,765.5)"/><path d="M 318 771v 11h 11a 11 11, 0, 0, 0, -11 -11" transform="rotate(90,323.5,776.5)"/></clipPath><clipPath id="clip-path-corners-dot-color-0-1"><path d="M 274 727v 11h 11a 11 11, 0, 0, 0, -11 -11" transform="rotate(-90,279.5,732.5)"/><rect x="274" y="738" width="11" height="11" transform="rotate(0,279.5,743.5)"/><path d="M 274 749v 11h 11a 11 11, 0, 0, 0, -11 -11" transform="rotate(180,279.5,754.5)"/><rect x="285" y="727" width="11" height="11" transform="rotate(0,290.5,732.5)"/><rect x="285" y="738" width="11" height="11" transform="rotate(0,290.5,743.5)"/><rect x="285" y="749" width="11" height="11" transform="rotate(0,290.5,754.5)"/><path d="M 296 727v 11h 11a 11 11, 0, 0, 0, -11 -11" transform="rotate(0,301.5,732.5)"/><rect x="296" y="738" width="11" height="11" transform="rotate(0,301.5,743.5)"/><path d="M 296 749v 11h 11a 11 11, 0, 0, 0, -11 -11" transform="rotate(90,301.5,754.5)"/></clipPath></defs><defs/><path fill="#000000" d="M805.5,212.31c5.51,0,10,4.49,10,10v621h-631v-621c0-5.51,4.49-10,10-10H805.5 M805.5,182.31h-611 c-22.09,0-40,17.91-40,40v651h691v-651C845.5,200.22,827.59,182.31,805.5,182.31L805.5,182.31z"/>
			<path fill="#595959" d="M940.5,870h-881c-7.46,0-13.5-6.04-13.5-13.5l0,0c0-7.46,6.04-13.5,13.5-13.5h881c7.46,0,13.5,6.04,13.5,13.5 l0,0C954,863.96,947.96,870,940.5,870z"/>
			<path fill="#000000" d="M809,962H191c-50.81,0-92-41.19-92-92v0h802v0C901,920.81,859.81,962,809,962z"/>
			<path fill="#000000" d="M768.77,971.07c-14.11-16.13-35.01-19.44-54.67-9.2c-9.98-9.67-28.38-9.98-44.13-4.35c-5.68,2.03-75.15,29.56-97.52,38.43 c-8.35-14.2-25.85-19.47-32.86-21.57c-11.39-3.42-166.66-31.01-225.5-18.17c-20.04,4.37-173.71,61.92-180.24,64.37 c-4.65,1.74-7.01,6.93-5.27,11.59c1.75,4.66,6.94,7.01,11.59,5.27c44.16-16.55,162.17-60.23,177.76-63.63 c51.68-11.28,201.93,13.46,216.5,17.83c17.97,5.39,25.09,12.04,24.6,22.97c-0.57,12.63-7.05,18.07-25.67,21.56 c-12.73,2.39-120.55,10.82-161.02,13.87c-4.96,0.37-8.67,4.69-8.3,9.65c0.36,4.73,4.3,8.33,8.96,8.32c0.23,0,0.46-0.01,0.69-0.03 c2.63-0.2,31.33-2.36,64.04-4.99c8.42,4.51,41.14,22,55.26,29.06c21.87,10.93,36.25,2.87,54.47-7.34c2.17-1.22,4.46-2.5,6.87-3.81 c11.02-6.01,147.26-89.29,163.74-100.45c5.16-3.49,23.08-13.64,37.18,2.48c3.41,3.9,5.03,9.02,4.55,14.41 c-0.56,6.33-3.9,12.23-9.4,16.63c-6.76,5.41-171.11,134.74-191.44,148.59c-35.01,23.84-77.4,30.45-125.98,19.65 c-10.79-2.4-137.83-38.25-203.5-56.87c-1.85-0.53-3.83-0.44-5.64,0.24l-45,17c-4.65,1.76-7,6.95-5.24,11.6 c1.76,4.65,6.95,7,11.6,5.24l42.22-15.95c24.7,7,188.44,53.38,201.65,56.32c16.47,3.66,32.32,5.49,47.52,5.49 c34.3,0,65.28-9.3,92.5-27.83c21.31-14.51,186.19-144.32,192.56-149.41c9.37-7.5,15.08-17.83,16.08-29.09 C778.62,988.6,775.45,978.71,768.77,971.07z M545.69,1065.1c-2.47,1.35-4.82,2.66-7.05,3.91c-18.45,10.34-24.89,13.3-37.62,6.94 c-7-3.5-18.97-9.78-30.12-15.68c30.98-2.6,59.01-5.16,65.76-6.42c10.64-2,38.92-7.3,40.33-38.44c0.03-0.65,0.03-1.28,0.03-1.91 c34.65-13.74,94.17-37.3,99.01-39.03c7.65-2.73,15.7-3.29,21-1.9C660.36,995.71,555.27,1059.87,545.69,1065.1z"/>
			<polygon fill="#595959" points="0,1300 17.07,1300 195,1188 126,997 0,1032.71"/>
			<text fill="#000000" font-size="90" x="50%" y="98" dominant-baseline="middle" text-anchor="middle" font-family="sans-serif"> </text><rect x="218" y="253" height="563" width="564" clip-path="url('#clip-path-background-color')" fill="#ffffff"/><rect x="252" y="287" height="495" width="495" clip-path="url('#clip-path-dot-color')" fill="#000000"/><rect x="252" y="287" height="77" width="77" clip-path="url('#clip-path-corners-square-color-0-0')" fill="#000000"/><rect x="274" y="309" height="33" width="33" clip-path="url('#clip-path-corners-dot-color-0-0')" fill="#000000"/><rect x="670" y="287" height="77" width="77" clip-path="url('#clip-path-corners-square-color-1-0')" fill="#000000"/><rect x="692" y="309" height="33" width="33" clip-path="url('#clip-path-corners-dot-color-1-0')" fill="#000000"/><rect x="252" y="705" height="77" width="77" clip-path="url('#clip-path-corners-square-color-0-1')" fill="#000000"/><rect x="274" y="727" height="33" width="33" clip-path="url('#clip-path-corners-dot-color-0-1')" fill="#000000"/><image href="https://img.qrfy.com/img/large/f83bf4a4-484d-413b-90ed-1010bdfeb620.webp" x="417" y="457.5" width="165px" height="154px"/></svg>